Armada-Condensed_Light.ufo
<glyph name="space" format="1">
  <advance width="173"/>
  <unicode hex="0020"/>
  <outline>
    <contour>
      <point x="1" y="0" type="move"/>
    </contour>
  </outline>
</glyph>
<glyph name="exclam" format="1">
  <advance width="156"/>
  <unicode hex="0021"/>
  <outline>
    <contour>
      <point x="96" y="177" type="line"/>
      <point x="60" y="177" type="line"/>
      <point x="60" y="720" type="line"/>
      <point x="96" y="720" type="line"/>
    </contour>
    <contour>
      <point x="97" y="0" type="line"/>
      <point x="59" y="0" type="line"/>
      <point x="59" y="103" type="line"/>
      <point x="97" y="103" type="line"/>
    </contour>
  </outline>
</glyph>
<glyph name="quotedbl" format="1">
  <advance width="273"/>
  <unicode hex="0022"/>
  <outline>
    <contour>
      <point x="219" y="484" type="line"/>
      <point x="182" y="484" type="line"/>
      <point x="182" y="720" type="line"/>
      <point x="219" y="720" type="line"/>
    </contour>
    <contour>
      <point x="92" y="484" type="line"/>
      <point x="54" y="484" type="line"/>
      <point x="54" y="720" type="line"/>
      <point x="92" y="720" type="line"/>
    </contour>
  </outline>
</glyph>
<glyph name="numbersign" format="1">
  <advance width="442"/>
  <unicode hex="0023"/>
  <outline>
    <contour>
      <point x="404" y="210" type="line"/>
      <point x="324" y="210" type="line"/>
      <point x="324" y="0" type="line"/>
      <point x="289" y="0" type="line"/>
      <point x="289" y="210" type="line"/>
      <point x="153" y="210" type="line"/>
      <point x="153" y="0" type="line"/>
      <point x="118" y="0" type="line"/>
      <point x="118" y="210" type="line"/>
      <point x="38" y="210" type="line"/>
      <point x="38" y="244" type="line"/>
      <point x="118" y="244" type="line"/>
      <point x="118" y="478" type="line"/>
      <point x="38" y="478" type="line"/>
      <point x="38" y="512" type="line"/>
      <point x="118" y="512" type="line"/>
      <point x="118" y="720" type="line"/>
      <point x="153" y="720" type="line"/>
      <point x="153" y="512" type="line"/>
      <point x="289" y="512" type="line"/>
      <point x="289" y="720" type="line"/>
      <point x="324" y="720" type="line"/>
      <point x="324" y="512" type="line"/>
      <point x="404" y="512" type="line"/>
      <point x="404" y="478" type="line"/>
      <point x="324" y="478" type="line"/>
      <point x="324" y="244" type="line"/>
      <point x="404" y="244" type="line"/>
    </contour>
    <contour>
      <point x="289" y="244" type="line"/>
      <point x="289" y="478" type="line"/>
      <point x="153" y="478" type="line"/>
      <point x="153" y="244" type="line"/>
    </contour>
  </outline>
</glyph>
<glyph name="dollar" format="1">
  <advance width="405"/>
  <unicode hex="0024"/>
  <outline>
    <contour>
      <point x="350" y="41" type="line"/>
      <point x="311" y="11"/>
      <point x="264" y="-1"/>
      <point x="222" y="-3" type="curve"/>
      <point x="222" y="-95" type="line"/>
      <point x="186" y="-95" type="line"/>
      <point x="186" y="-3" type="line"/>
      <point x="144" y="-1"/>
      <point x="97" y="11"/>
      <point x="58" y="41" type="curve"/>
      <point x="58" y="233" type="line"/>
      <point x="95" y="233" type="line"/>
      <point x="95" y="60" type="line"/>
      <point x="128" y="36"/>
      <point x="166" y="29"/>
      <point x="204" y="29" type="curve" smooth="yes"/>
      <point x="242" y="29"/>
      <point x="281" y="36"/>
      <point x="313" y="60" type="curve"/>
      <point x="313" y="266" type="line"/>
      <point x="60" y="439" type="line"/>
      <point x="60" y="679" type="line"/>
      <point x="98" y="709"/>
      <point x="144" y="721"/>
      <point x="186" y="723" type="curve"/>
      <point x="186" y="802" type="line"/>
      <point x="222" y="802" type="line"/>
      <point x="222" y="723" type="line"/>
      <point x="264" y="721"/>
      <point x="310" y="709"/>
      <point x="348" y="679" type="curve"/>
      <point x="348" y="487" type="line"/>
      <point x="312" y="487" type="line"/>
      <point x="312" y="660" type="line"/>
      <point x="279" y="683"/>
      <point x="242" y="691"/>
      <point x="204" y="691" type="curve" smooth="yes"/>
      <point x="166" y="691"/>
      <point x="129" y="683"/>
      <point x="97" y="660" type="curve"/>
      <point x="97" y="456" type="line"/>
      <point x="350" y="282" type="line"/>
    </contour>
  </outline>
</glyph>
<glyph name="percent" format="1">
  <advance width="680"/>
  <unicode hex="0025"/>
  <outline>
    <contour>
      <point x="627" y="33" type="line"/>
      <point x="598" y="6"/>
      <point x="561" y="-7"/>
      <point x="519" y="-7" type="curve" smooth="yes"/>
      <point x="478" y="-7"/>
      <point x="441" y="6"/>
      <point x="412" y="33" type="curve"/>
      <point x="412" y="344" type="line"/>
      <point x="441" y="371"/>
      <point x="478" y="383"/>
      <point x="519" y="383" type="curve" smooth="yes"/>
      <point x="561" y="383"/>
      <point x="598" y="371"/>
      <point x="627" y="344" type="curve"/>
    </contour>
    <contour>
      <point x="464" y="720" type="line"/>
      <point x="251" y="0" type="line"/>
      <point x="216" y="0" type="line"/>
      <point x="429" y="720" type="line"/>
    </contour>
    <contour>
      <point x="268" y="376" type="line"/>
      <point x="239" y="349"/>
      <point x="202" y="337"/>
      <point x="160" y="337" type="curve" smooth="yes"/>
      <point x="119" y="337"/>
      <point x="82" y="349"/>
      <point x="52" y="376" type="curve"/>
      <point x="52" y="687" type="line"/>
      <point x="82" y="714"/>
      <point x="119" y="727"/>
      <point x="160" y="727" type="curve" smooth="yes"/>
      <point x="202" y="727"/>
      <point x="239" y="714"/>
      <point x="268" y="687" type="curve"/>
    </contour>
    <contour>
      <point x="593" y="48" type="curve"/>
      <point x="593" y="328" type="line"/>
      <point x="571" y="347"/>
      <point x="545" y="353"/>
      <point x="519" y="353" type="curve" smooth="yes"/>
      <point x="493" y="353"/>
      <point x="468" y="347"/>
      <point x="445" y="328" type="curve"/>
      <point x="445" y="48" type="line"/>
      <point x="468" y="30"/>
      <point x="493" y="23"/>
      <point x="519" y="23" type="curve" smooth="yes"/>
      <point x="545" y="23"/>
      <point x="571" y="30"/>
    </contour>
    <contour>
      <point x="234" y="392" type="curve"/>
      <point x="234" y="672" type="line"/>
      <point x="212" y="690"/>
      <point x="187" y="697"/>
      <point x="160" y="697" type="curve" smooth="yes"/>
      <point x="134" y="697"/>
      <point x="109" y="690"/>
      <point x="86" y="672" type="curve"/>
      <point x="86" y="392" type="line"/>
      <point x="109" y="373"/>
      <point x="134" y="367"/>
      <point x="160" y="367" type="curve" smooth="yes"/>
      <point x="187" y="367"/>
      <point x="212" y="373"/>
    </contour>
  </outline>
</glyph>
<glyph name="ampersand" format="1">
  <advance width="441"/>
  <unicode hex="0026"/>
  <outline>
    <contour>
      <point x="400" y="354" type="line"/>
      <point x="354" y="354" type="line"/>
      <point x="354" y="33" type="line"/>
      <point x="313" y="4"/>
      <point x="260" y="-7"/>
      <point x="203" y="-7" type="curve" smooth="yes"/>
      <point x="149" y="-7"/>
      <point x="91" y="7"/>
      <point x="53" y="43" type="curve"/>
      <point x="53" y="321" type="line"/>
      <point x="77" y="348"/>
      <point x="113" y="365"/>
      <point x="144" y="370" type="curve"/>
      <point x="113" y="375"/>
      <point x="80" y="392"/>
      <point x="56" y="418" type="curve"/>
      <point x="56" y="675" type="line"/>
      <point x="95" y="712"/>
      <point x="151" y="727"/>
      <point x="205" y="727" type="curve" smooth="yes"/>
      <point x="261" y="727"/>
      <point x="313" y="716"/>
      <point x="354" y="685" type="curve"/>
      <point x="354" y="487" type="line"/>
      <point x="318" y="487" type="line"/>
      <point x="318" y="666" type="line"/>
      <point x="287" y="686"/>
      <point x="247" y="694"/>
      <point x="205" y="694" type="curve" smooth="yes"/>
      <point x="166" y="694"/>
      <point x="121" y="684"/>
      <point x="93" y="658" type="curve"/>
      <point x="93" y="429" type="line"/>
      <point x="121" y="398"/>
      <point x="160" y="386"/>
      <point x="209" y="386" type="curve" smooth="yes"/>
      <point x="400" y="386" type="line"/>
    </contour>
    <contour>
      <point x="318" y="52" type="curve"/>
      <point x="318" y="354" type="line"/>
      <point x="207" y="354" type="line" smooth="yes"/>
      <point x="158" y="354"/>
      <point x="121" y="344"/>
      <point x="90" y="311" type="curve"/>
      <point x="90" y="59" type="line"/>
      <point x="118" y="35"/>
      <point x="165" y="26"/>
      <point x="203" y="26" type="curve" smooth="yes"/>
      <point x="246" y="26"/>
      <point x="286" y="33"/>
    </contour>
  </outline>
</glyph>
<glyph name="quotesingle" format="1">
  <advance width="146"/>
  <unicode hex="0027"/>
  <outline>
    <contour>
      <point x="92" y="484" type="line"/>
      <point x="54" y="484" type="line"/>
      <point x="54" y="720" type="line"/>
      <point x="92" y="720" type="line"/>
    </contour>
  </outline>
</glyph>
<glyph name="parenleft" format="1">
  <advance width="226"/>
  <unicode hex="0028"/>
  <outline>
    <contour>
      <point x="182" y="-6" type="line"/>
      <point x="131" y="-4"/>
      <point x="87" y="19"/>
      <point x="60" y="51" type="curve"/>
      <point x="60" y="669" type="line"/>
      <point x="87" y="701"/>
      <point x="131" y="724"/>
      <point x="182" y="726" type="curve"/>
      <point x="182" y="690" type="line"/>
      <point x="148" y="688"/>
      <point x="116" y="673"/>
      <point x="97" y="652" type="curve"/>
      <point x="97" y="68" type="line"/>
      <point x="116" y="47"/>
      <point x="148" y="32"/>
      <point x="182" y="30" type="curve"/>
    </contour>
  </outline>
</glyph>
<glyph name="parenright" format="1">
  <advance width="226"/>
  <unicode hex="0029"/>
  <outline>
    <contour>
      <point x="166" y="51" type="line"/>
      <point x="139" y="19"/>
      <point x="95" y="-4"/>
      <point x="44" y="-6" type="curve"/>
      <point x="44" y="30" type="line"/>
      <point x="78" y="32"/>
      <point x="111" y="47"/>
      <point x="129" y="68" type="curve"/>
      <point x="129" y="652" type="line"/>
      <point x="111" y="673"/>
      <point x="78" y="688"/>
      <point x="44" y="690" type="curve"/>
      <point x="44" y="726" type="line"/>
      <point x="95" y="724"/>
      <point x="139" y="701"/>
      <point x="166" y="669" type="curve"/>
    </contour>
  </outline>
</glyph>
<glyph name="asterisk" format="1">
  <advance width="375"/>
  <unicode hex="002A"/>
  <outline>
    <contour>
      <point x="320" y="306" type="line"/>
      <point x="287" y="306" type="line"/>
      <point x="287" y="420" type="line"/>
      <point x="272" y="437"/>
      <point x="244" y="452"/>
      <point x="204" y="457" type="curve"/>
      <point x="204" y="227" type="line"/>
      <point x="172" y="227" type="line"/>
      <point x="172" y="457" type="line"/>
      <point x="131" y="452"/>
      <point x="103" y="437"/>
      <point x="89" y="420" type="curve"/>
      <point x="89" y="306" type="line"/>
      <point x="55" y="306" type="line"/>
      <point x="55" y="428" type="line"/>
      <point x="75" y="450"/>
      <point x="109" y="467"/>
      <point x="141" y="474" type="curve"/>
      <point x="109" y="480"/>
      <point x="75" y="497"/>
      <point x="55" y="519" type="curve"/>
      <point x="55" y="641" type="line"/>
      <point x="89" y="641" type="line"/>
      <point x="89" y="528" type="line"/>
      <point x="103" y="511"/>
      <point x="131" y="496"/>
      <point x="172" y="490" type="curve"/>
      <point x="172" y="721" type="line"/>
      <point x="204" y="721" type="line"/>
      <point x="204" y="490" type="line"/>
      <point x="244" y="496"/>
      <point x="272" y="511"/>
      <point x="287" y="528" type="curve"/>
      <point x="287" y="641" type="line"/>
      <point x="320" y="641" type="line"/>
      <point x="320" y="519" type="line"/>
      <point x="301" y="497"/>
      <point x="267" y="480"/>
      <point x="235" y="474" type="curve"/>
      <point x="267" y="467"/>
      <point x="301" y="450"/>
      <point x="320" y="428" type="curve"/>
    </contour>
  </outline>
</glyph>
<glyph name="plus" format="1">
  <advance width="315"/>
  <unicode hex="002B"/>
  <outline>
    <contour>
      <point x="284" y="355" type="line"/>
      <point x="175" y="355" type="line"/>
      <point x="175" y="195" type="line"/>
      <point x="140" y="195" type="line"/>
      <point x="140" y="355" type="line"/>
      <point x="31" y="355" type="line"/>
      <point x="31" y="388" type="line"/>
      <point x="140" y="388" type="line"/>
      <point x="140" y="546" type="line"/>
      <point x="175" y="546" type="line"/>
      <point x="175" y="388" type="line"/>
      <point x="284" y="388" type="line"/>
    </contour>
  </outline>
</glyph>
<glyph name="comma" format="1">
  <advance width="143"/>
  <unicode hex="002C"/>
  <outline>
    <contour>
      <point x="97" y="103" type="line"/>
      <point x="73" y="-68" type="line"/>
      <point x="36" y="-68" type="line"/>
      <point x="59" y="103" type="line"/>
    </contour>
  </outline>
</glyph>
<glyph name="hyphen" format="1">
  <advance width="210"/>
  <unicode hex="002D"/>
  <unicode hex="2010"/>
  <unicode hex="2011"/>
  <outline>
    <contour>
      <point x="178" y="297" type="line"/>
      <point x="31" y="297" type="line"/>
      <point x="31" y="332" type="line"/>
      <point x="178" y="332" type="line"/>
    </contour>
  </outline>
</glyph>
<glyph name="period" format="1">
  <advance width="143"/>
  <unicode hex="002E"/>
  <outline>
    <contour>
      <point x="91" y="0" type="line"/>
      <point x="52" y="0" type="line"/>
      <point x="52" y="103" type="line"/>
      <point x="91" y="103" type="line"/>
    </contour>
  </outline>
</glyph>
<glyph name="slash" format="1">
  <advance width="278"/>
  <unicode hex="002F"/>
  <outline>
    <contour>
      <point x="238" y="720" type="line"/>
      <point x="76" y="0" type="line"/>
      <point x="40" y="0" type="line"/>
      <point x="203" y="720" type="line"/>
    </contour>
  </outline>
</glyph>
<glyph name="zero" format="1">
  <advance width="434"/>
  <unicode hex="0030"/>
  <outline>
    <contour>
      <point x="374" y="47" type="line"/>
      <point x="329" y="11"/>
      <point x="274" y="-7"/>
      <point x="217" y="-7" type="curve" smooth="yes"/>
      <point x="160" y="-7"/>
      <point x="106" y="11"/>
      <point x="60" y="47" type="curve"/>
      <point x="60" y="673" type="line"/>
      <point x="106" y="709"/>
      <point x="160" y="727"/>
      <point x="217" y="727" type="curve" smooth="yes"/>
      <point x="274" y="727"/>
      <point x="329" y="709"/>
      <point x="374" y="673" type="curve"/>
    </contour>
    <contour>
      <point x="337" y="65" type="curve"/>
      <point x="337" y="655" type="line"/>
      <point x="303" y="681"/>
      <point x="265" y="694"/>
      <point x="217" y="694" type="curve" smooth="yes"/>
      <point x="169" y="694"/>
      <point x="132" y="681"/>
      <point x="97" y="655" type="curve"/>
      <point x="97" y="65" type="line"/>
      <point x="132" y="39"/>
      <point x="169" y="26"/>
      <point x="217" y="26" type="curve" smooth="yes"/>
      <point x="265" y="26"/>
      <point x="303" y="39"/>
    </contour>
  </outline>
</glyph>
<glyph name="one" format="1">
  <advance width="281"/>
  <unicode hex="0031"/>
  <outline>
    <contour>
      <point x="248" y="0" type="line"/>
      <point x="39" y="0" type="line"/>
      <point x="39" y="34" type="line"/>
      <point x="125" y="34" type="line"/>
      <point x="125" y="686" type="line"/>
      <point x="44" y="686" type="line"/>
      <point x="44" y="720" type="line"/>
      <point x="161" y="720" type="line"/>
      <point x="161" y="34" type="line"/>
      <point x="248" y="34" type="line"/>
    </contour>
  </outline>
</glyph>
<glyph name="two" format="1">
  <advance width="385"/>
  <unicode hex="0032"/>
  <outline>
    <contour>
      <point x="334" y="0" type="line"/>
      <point x="47" y="0" type="line"/>
      <point x="47" y="29" type="line"/>
      <point x="296" y="471" type="line"/>
      <point x="296" y="660" type="line"/>
      <point x="267" y="683"/>
      <point x="230" y="694"/>
      <point x="191" y="694" type="curve" smooth="yes"/>
      <point x="153" y="694"/>
      <point x="116" y="683"/>
      <point x="86" y="660" type="curve"/>
      <point x="86" y="487" type="line"/>
      <point x="49" y="487" type="line"/>
      <point x="49" y="679" type="line"/>
      <point x="92" y="714"/>
      <point x="143" y="727"/>
      <point x="191" y="727" type="curve" smooth="yes"/>
      <point x="241" y="727"/>
      <point x="291" y="714"/>
      <point x="333" y="679" type="curve"/>
      <point x="333" y="468" type="line"/>
      <point x="90" y="33" type="line"/>
      <point x="90" y="33" type="line"/>
      <point x="334" y="33" type="line"/>
    </contour>
  </outline>
</glyph>
<glyph name="three" format="1">
  <advance width="416"/>
  <unicode hex="0033"/>
  <outline>
    <contour>
      <point x="355" y="41" type="line"/>
      <point x="313" y="6"/>
      <point x="257" y="-7"/>
      <point x="207" y="-7" type="curve" smooth="yes"/>
      <point x="156" y="-7"/>
      <point x="100" y="6"/>
      <point x="58" y="41" type="curve"/>
      <point x="58" y="233" type="line"/>
      <point x="95" y="233" type="line"/>
      <point x="95" y="60" type="line"/>
      <point x="124" y="37"/>
      <point x="166" y="26"/>
      <point x="207" y="26" type="curve" smooth="yes"/>
      <point x="246" y="26"/>
      <point x="288" y="37"/>
      <point x="318" y="60" type="curve"/>
      <point x="318" y="309" type="line"/>
      <point x="287" y="342"/>
      <point x="251" y="352"/>
      <point x="202" y="352" type="curve" smooth="yes"/>
      <point x="157" y="352" type="line"/>
      <point x="157" y="385" type="line"/>
      <point x="200" y="385" type="line" smooth="yes"/>
      <point x="249" y="385"/>
      <point x="289" y="397"/>
      <point x="316" y="429" type="curve"/>
      <point x="316" y="660" type="line"/>
      <point x="286" y="683"/>
      <point x="245" y="694"/>
      <point x="206" y="694" type="curve" smooth="yes"/>
      <point x="166" y="694"/>
      <point x="124" y="683"/>
      <point x="95" y="660" type="curve"/>
      <point x="95" y="487" type="line"/>
      <point x="58" y="487" type="line"/>
      <point x="58" y="679" type="line"/>
      <point x="101" y="714"/>
      <point x="156" y="727"/>
      <point x="206" y="727" type="curve" smooth="yes"/>
      <point x="257" y="727"/>
      <point x="311" y="714"/>
      <point x="353" y="679" type="curve"/>
      <point x="353" y="417" type="line"/>
      <point x="330" y="391"/>
      <point x="296" y="374"/>
      <point x="265" y="369" type="curve"/>
      <point x="296" y="364"/>
      <point x="331" y="346"/>
      <point x="355" y="320" type="curve"/>
    </contour>
  </outline>
</glyph>
<glyph name="four" format="1">
  <advance width="419"/>
  <unicode hex="0034"/>
  <outline>
    <contour>
      <point x="351" y="0" type="line"/>
      <point x="314" y="0" type="line"/>
      <point x="314" y="241" type="line"/>
      <point x="63" y="241" type="line"/>
      <point x="63" y="720" type="line"/>
      <point x="100" y="720" type="line"/>
      <point x="100" y="276" type="line"/>
      <point x="314" y="276" type="line"/>
      <point x="314" y="720" type="line"/>
      <point x="351" y="720" type="line"/>
    </contour>
  </outline>
</glyph>
<glyph name="five" format="1">
  <advance width="408"/>
  <unicode hex="0035"/>
  <outline>
    <contour>
      <point x="355" y="685" type="line"/>
      <point x="102" y="685" type="line"/>
      <point x="102" y="410" type="line"/>
      <point x="212" y="410" type="line" smooth="yes"/>
      <point x="270" y="410"/>
      <point x="317" y="397"/>
      <point x="353" y="362" type="curve"/>
      <point x="353" y="39" type="line"/>
      <point x="312" y="6"/>
      <point x="259" y="-7"/>
      <point x="208" y="-7" type="curve" smooth="yes"/>
      <point x="158" y="-7"/>
      <point x="105" y="5"/>
      <point x="63" y="39" type="curve"/>
      <point x="63" y="233" type="line"/>
      <point x="100" y="233" type="line"/>
      <point x="100" y="59" type="line"/>
      <point x="129" y="36"/>
      <point x="168" y="26"/>
      <point x="208" y="26" type="curve" smooth="yes"/>
      <point x="247" y="26"/>
      <point x="287" y="36"/>
      <point x="317" y="59" type="curve"/>
      <point x="317" y="343" type="line"/>
      <point x="289" y="369"/>
      <point x="253" y="376"/>
      <point x="209" y="376" type="curve" smooth="yes"/>
      <point x="66" y="376" type="line"/>
      <point x="66" y="720" type="line"/>
      <point x="355" y="720" type="line"/>
    </contour>
  </outline>
</glyph>
<glyph name="six" format="1">
  <advance width="419"/>
  <unicode hex="0036"/>
  <outline>
    <contour>
      <point x="360" y="45" type="line"/>
      <point x="320" y="7"/>
      <point x="259" y="-7"/>
      <point x="210" y="-7" type="curve" smooth="yes"/>
      <point x="161" y="-7"/>
      <point x="101" y="7"/>
      <point x="60" y="45" type="curve"/>
      <point x="60" y="679" type="line"/>
      <point x="102" y="714"/>
      <point x="159" y="727"/>
      <point x="210" y="727" type="curve" smooth="yes"/>
      <point x="260" y="727"/>
      <point x="317" y="715"/>
      <point x="359" y="681" type="curve"/>
      <point x="359" y="487" type="line"/>
      <point x="323" y="487" type="line"/>
      <point x="323" y="661" type="line"/>
      <point x="294" y="683"/>
      <point x="251" y="694"/>
      <point x="210" y="694" type="curve" smooth="yes"/>
      <point x="171" y="694"/>
      <point x="127" y="683"/>
      <point x="97" y="660" type="curve"/>
      <point x="97" y="373" type="line"/>
      <point x="126" y="391"/>
      <point x="173" y="403"/>
      <point x="215" y="403" type="curve" smooth="yes"/>
      <point x="269" y="403"/>
      <point x="327" y="388"/>
      <point x="360" y="356" type="curve"/>
    </contour>
    <contour>
      <point x="323" y="62" type="curve"/>
      <point x="323" y="337" type="line"/>
      <point x="298" y="360"/>
      <point x="255" y="369"/>
      <point x="210" y="369" type="curve" smooth="yes"/>
      <point x="169" y="369"/>
      <point x="128" y="360"/>
      <point x="97" y="337" type="curve"/>
      <point x="97" y="62" type="line"/>
      <point x="126" y="37"/>
      <point x="171" y="27"/>
      <point x="210" y="26" type="curve" smooth="yes"/>
      <point x="249" y="25"/>
      <point x="294" y="37"/>
    </contour>
  </outline>
</glyph>
<glyph name="seven" format="1">
  <advance width="349"/>
  <unicode hex="0037"/>
  <outline>
    <contour>
      <point x="308" y="690" type="line"/>
      <point x="138" y="0" type="line"/>
      <point x="101" y="0" type="line"/>
      <point x="272" y="687" type="line"/>
      <point x="32" y="687" type="line"/>
      <point x="32" y="720" type="line"/>
      <point x="308" y="720" type="line"/>
    </contour>
  </outline>
</glyph>
<glyph name="eight" format="1">
  <advance width="431"/>
  <unicode hex="0038"/>
  <outline>
    <contour>
      <point x="364" y="44" type="line"/>
      <point x="321" y="7"/>
      <point x="269" y="-7"/>
      <point x="212" y="-7" type="curve" smooth="yes"/>
      <point x="155" y="-7"/>
      <point x="104" y="7"/>
      <point x="60" y="44" type="curve"/>
      <point x="60" y="323" type="line"/>
      <point x="87" y="348"/>
      <point x="125" y="364"/>
      <point x="158" y="368" type="curve"/>
      <point x="125" y="375"/>
      <point x="89" y="390"/>
      <point x="65" y="414" type="curve"/>
      <point x="65" y="676" type="line"/>
      <point x="109" y="714"/>
      <point x="161" y="727"/>
      <point x="212" y="727" type="curve" smooth="yes"/>
      <point x="264" y="727"/>
      <point x="316" y="714"/>
      <point x="360" y="676" type="curve"/>
      <point x="360" y="414" type="line"/>
      <point x="336" y="390"/>
      <point x="300" y="375"/>
      <point x="267" y="368" type="curve"/>
      <point x="300" y="364"/>
      <point x="338" y="348"/>
      <point x="364" y="323" type="curve"/>
    </contour>
    <contour>
      <point x="323" y="423" type="curve"/>
      <point x="323" y="661" type="line"/>
      <point x="290" y="686"/>
      <point x="251" y="694"/>
      <point x="212" y="694" type="curve" smooth="yes"/>
      <point x="174" y="694"/>
      <point x="134" y="686"/>
      <point x="102" y="661" type="curve"/>
      <point x="102" y="423" type="line"/>
      <point x="129" y="397"/>
      <point x="178" y="386"/>
      <point x="212" y="386" type="curve" smooth="yes"/>
      <point x="247" y="386"/>
      <point x="295" y="397"/>
    </contour>
    <contour>
      <point x="328" y="60" type="curve"/>
      <point x="328" y="315" type="line"/>
      <point x="297" y="342"/>
      <point x="249" y="353"/>
      <point x="212" y="353" type="curve" smooth="yes"/>
      <point x="176" y="353"/>
      <point x="128" y="342"/>
      <point x="97" y="315" type="curve"/>
      <point x="97" y="60" type="line"/>
      <point x="130" y="35"/>
      <point x="171" y="26"/>
      <point x="212" y="26" type="curve" smooth="yes"/>
      <point x="254" y="26"/>
      <point x="295" y="35"/>
    </contour>
  </outline>
</glyph>
<glyph name="nine" format="1">
  <advance width="419"/>
  <unicode hex="0039"/>
  <outline>
    <contour>
      <point x="359" y="41" type="line"/>
      <point x="317" y="6"/>
      <point x="260" y="-7"/>
      <point x="209" y="-7" type="curve" smooth="yes"/>
      <point x="159" y="-7"/>
      <point x="102" y="5"/>
      <point x="60" y="39" type="curve"/>
      <point x="60" y="233" type="line"/>
      <point x="97" y="233" type="line"/>
      <point x="97" y="59" type="line"/>
      <point x="126" y="37"/>
      <point x="168" y="26"/>
      <point x="209" y="26" type="curve" smooth="yes"/>
      <point x="248" y="26"/>
      <point x="292" y="37"/>
      <point x="323" y="60" type="curve"/>
      <point x="323" y="347" type="line"/>
      <point x="293" y="329"/>
      <point x="247" y="317"/>
      <point x="204" y="317" type="curve" smooth="yes"/>
      <point x="151" y="317"/>
      <point x="93" y="332"/>
      <point x="59" y="364" type="curve"/>
      <point x="59" y="675" type="line"/>
      <point x="100" y="713"/>
      <point x="160" y="727"/>
      <point x="209" y="727" type="curve" smooth="yes"/>
      <point x="258" y="727"/>
      <point x="318" y="713"/>
      <point x="359" y="675" type="curve"/>
    </contour>
    <contour>
      <point x="323" y="383" type="curve"/>
      <point x="323" y="658" type="line"/>
      <point x="293" y="683"/>
      <point x="248" y="693"/>
      <point x="209" y="694" type="curve" smooth="yes"/>
      <point x="170" y="694"/>
      <point x="125" y="683"/>
      <point x="96" y="658" type="curve"/>
      <point x="96" y="383" type="line"/>
      <point x="122" y="360"/>
      <point x="164" y="351"/>
      <point x="209" y="351" type="curve" smooth="yes"/>
      <point x="250" y="351"/>
      <point x="291" y="360"/>
    </contour>
  </outline>
</glyph>
<glyph name="colon" format="1">
  <advance width="143"/>
  <unicode hex="003A"/>
  <outline>
    <contour>
      <point x="91" y="377" type="line"/>
      <point x="52" y="377" type="line"/>
      <point x="52" y="480" type="line"/>
      <point x="91" y="480" type="line"/>
    </contour>
    <contour>
      <point x="91" y="0" type="line"/>
      <point x="52" y="0" type="line"/>
      <point x="52" y="103" type="line"/>
      <point x="91" y="103" type="line"/>
    </contour>
  </outline>
</glyph>
<glyph name="semicolon" format="1">
  <advance width="143"/>
  <unicode hex="003B"/>
  <outline>
    <contour>
      <point x="91" y="377" type="line"/>
      <point x="52" y="377" type="line"/>
      <point x="52" y="480" type="line"/>
      <point x="91" y="480" type="line"/>
    </contour>
    <contour>
      <point x="97" y="103" type="line"/>
      <point x="73" y="-68" type="line"/>
      <point x="36" y="-68" type="line"/>
      <point x="59" y="103" type="line"/>
    </contour>
  </outline>
</glyph>
<glyph name="less" format="1">
  <advance width="277"/>
  <unicode hex="003C"/>
  <outline>
    <contour>
      <point x="239" y="128" type="line"/>
      <point x="30" y="342" type="line"/>
      <point x="30" y="385" type="line"/>
      <point x="239" y="599" type="line"/>
      <point x="239" y="544" type="line"/>
      <point x="60" y="364" type="line"/>
      <point x="239" y="183" type="line"/>
    </contour>
  </outline>
</glyph>
<glyph name="equal" format="1">
  <advance width="272"/>
  <unicode hex="003D"/>
  <outline>
    <contour>
      <point x="234" y="428" type="line"/>
      <point x="38" y="428" type="line"/>
      <point x="38" y="463" type="line"/>
      <point x="234" y="463" type="line"/>
    </contour>
    <contour>
      <point x="234" y="278" type="line"/>
      <point x="38" y="278" type="line"/>
      <point x="38" y="313" type="line"/>
      <point x="234" y="313" type="line"/>
    </contour>
  </outline>
</glyph>
<glyph name="greater" format="1">
  <advance width="277"/>
  <unicode hex="003E"/>
  <outline>
    <contour>
      <point x="247" y="342" type="line"/>
      <point x="38" y="128" type="line"/>
      <point x="38" y="183" type="line"/>
      <point x="217" y="364" type="line"/>
      <point x="38" y="544" type="line"/>
      <point x="38" y="599" type="line"/>
      <point x="247" y="385" type="line"/>
    </contour>
  </outline>
</glyph>
<glyph name="question" format="1">
  <advance width="363"/>
  <unicode hex="003F"/>
  <outline>
    <contour>
      <point x="323" y="466" type="line"/>
      <point x="201" y="303" type="line"/>
      <point x="201" y="175" type="line"/>
      <point x="164" y="175" type="line"/>
      <point x="164" y="307" type="line"/>
      <point x="286" y="470" type="line"/>
      <point x="286" y="660" type="line"/>
      <point x="256" y="684"/>
      <point x="219" y="694"/>
      <point x="181" y="694" type="curve" smooth="yes"/>
      <point x="142" y="694"/>
      <point x="105" y="684"/>
      <point x="76" y="660" type="curve"/>
      <point x="76" y="487" type="line"/>
      <point x="39" y="487" type="line"/>
      <point x="39" y="679" type="line"/>
      <point x="81" y="714"/>
      <point x="133" y="727"/>
      <point x="181" y="727" type="curve" smooth="yes"/>
      <point x="230" y="727"/>
      <point x="281" y="714"/>
      <point x="323" y="679" type="curve"/>
    </contour>
    <contour>
      <point x="201" y="0" type="line"/>
      <point x="163" y="0" type="line"/>
      <point x="163" y="103" type="line"/>
      <point x="201" y="103" type="line"/>
    </contour>
  </outline>
</glyph>
<glyph name="at" format="1">
  <advance width="536"/>
  <unicode hex="0040"/>
  <outline>
    <contour>
      <point x="476" y="60" type="line"/>
      <point x="421" y="14"/>
      <point x="346" y="-7"/>
      <point x="268" y="-7" type="curve" smooth="yes"/>
      <point x="190" y="-7"/>
      <point x="114" y="14"/>
      <point x="60" y="60" type="curve"/>
      <point x="60" y="660" type="line"/>
      <point x="114" y="706"/>
      <point x="190" y="727"/>
      <point x="268" y="727" type="curve" smooth="yes"/>
      <point x="346" y="727"/>
      <point x="421" y="706"/>
      <point x="476" y="660" type="curve"/>
      <point x="476" y="347" type="line"/>
      <point x="360" y="347" type="line"/>
      <point x="360" y="148" type="line"/>
      <point x="337" y="132"/>
      <point x="305" y="122"/>
      <point x="268" y="122" type="curve" smooth="yes"/>
      <point x="231" y="122"/>
      <point x="199" y="131"/>
      <point x="176" y="148" type="curve"/>
      <point x="176" y="572" type="line"/>
      <point x="198" y="588"/>
      <point x="231" y="598"/>
      <point x="268" y="598" type="curve" smooth="yes"/>
      <point x="305" y="598"/>
      <point x="337" y="589"/>
      <point x="360" y="572" type="curve"/>
      <point x="360" y="379" type="line"/>
      <point x="440" y="379" type="line"/>
      <point x="440" y="643" type="line"/>
      <point x="395" y="678"/>
      <point x="331" y="694"/>
      <point x="268" y="694" type="curve" smooth="yes"/>
      <point x="206" y="694"/>
      <point x="141" y="678"/>
      <point x="96" y="643" type="curve"/>
      <point x="96" y="77" type="line"/>
      <point x="141" y="42"/>
      <point x="206" y="26"/>
      <point x="268" y="26" type="curve" smooth="yes"/>
      <point x="331" y="26"/>
      <point x="395" y="42"/>
      <point x="440" y="77" type="curve"/>
      <point x="440" y="235" type="line"/>
      <point x="476" y="235" type="line"/>
    </contour>
    <contour>
      <point x="327" y="167" type="curve"/>
      <point x="327" y="553" type="line"/>
      <point x="312" y="563"/>
      <point x="293" y="568"/>
      <point x="268" y="568" type="curve" smooth="yes"/>
      <point x="244" y="568"/>
      <point x="224" y="563"/>
      <point x="210" y="553" type="curve"/>
      <point x="210" y="167" type="line"/>
      <point x="224" y="157"/>
      <point x="244" y="152"/>
      <point x="268" y="152" type="curve" smooth="yes"/>
      <point x="292" y="152"/>
      <point x="312" y="157"/>
    </contour>
  </outline>
</glyph>
<glyph name="A" format="1">
  <advance width="436"/>
  <unicode hex="0041"/>
  <outline>
    <contour>
      <point x="372" y="0" type="line"/>
      <point x="335" y="0" type="line"/>
      <point x="335" y="327" type="line"/>
      <point x="101" y="327" type="line"/>
      <point x="101" y="0" type="line"/>
      <point x="64" y="0" type="line"/>
      <point x="64" y="673" type="line"/>
      <point x="108" y="710"/>
      <point x="163" y="727"/>
      <point x="218" y="727" type="curve" smooth="yes"/>
      <point x="273" y="727"/>
      <point x="329" y="710"/>
      <point x="372" y="673" type="curve"/>
    </contour>
    <contour>
      <point x="335" y="362" type="line"/>
      <point x="335" y="655" type="line"/>
      <point x="300" y="682"/>
      <point x="261" y="694"/>
      <point x="218" y="694" type="curve" smooth="yes"/>
      <point x="175" y="694"/>
      <point x="136" y="682"/>
      <point x="101" y="655" type="curve"/>
      <point x="101" y="362" type="line"/>
    </contour>
  </outline>
</glyph>
<glyph name="B" format="1">
  <advance width="415"/>
  <unicode hex="0042"/>
  <outline>
    <contour>
      <point x="363" y="63" type="line"/>
      <point x="325" y="17"/>
      <point x="273" y="0"/>
      <point x="206" y="0" type="curve" smooth="yes"/>
      <point x="68" y="0" type="line"/>
      <point x="68" y="720" type="line"/>
      <point x="202" y="720" type="line" smooth="yes"/>
      <point x="271" y="720"/>
      <point x="321" y="704"/>
      <point x="359" y="658" type="curve"/>
      <point x="359" y="420" type="line"/>
      <point x="336" y="394"/>
      <point x="303" y="377"/>
      <point x="272" y="372" type="curve"/>
      <point x="303" y="368"/>
      <point x="338" y="350"/>
      <point x="363" y="323" type="curve"/>
    </contour>
    <contour>
      <point x="322" y="431" type="curve"/>
      <point x="322" y="643" type="line"/>
      <point x="293" y="677"/>
      <point x="253" y="687"/>
      <point x="202" y="687" type="curve" smooth="yes"/>
      <point x="104" y="687" type="line"/>
      <point x="104" y="387" type="line"/>
      <point x="207" y="387" type="line" smooth="yes"/>
      <point x="256" y="387"/>
      <point x="296" y="400"/>
    </contour>
    <contour>
      <point x="326" y="77" type="curve"/>
      <point x="326" y="313" type="line"/>
      <point x="296" y="344"/>
      <point x="258" y="356"/>
      <point x="209" y="356" type="curve" smooth="yes"/>
      <point x="104" y="356" type="line"/>
      <point x="104" y="33" type="line"/>
      <point x="205" y="33" type="line" smooth="yes"/>
      <point x="256" y="33"/>
      <point x="297" y="43"/>
    </contour>
  </outline>
</glyph>
<glyph name="C" format="1">
  <advance width="439"/>
  <unicode hex="0043"/>
  <outline>
    <contour>
      <point x="379" y="46" type="line"/>
      <point x="331" y="8"/>
      <point x="274" y="-7"/>
      <point x="220" y="-7" type="curve" smooth="yes"/>
      <point x="165" y="-7"/>
      <point x="109" y="8"/>
      <point x="60" y="46" type="curve"/>
      <point x="60" y="674" type="line"/>
      <point x="108" y="712"/>
      <point x="165" y="727"/>
      <point x="220" y="727" type="curve" smooth="yes"/>
      <point x="273" y="727"/>
      <point x="331" y="712"/>
      <point x="379" y="674" type="curve"/>
      <point x="379" y="487" type="line"/>
      <point x="342" y="487" type="line"/>
      <point x="342" y="655" type="line"/>
      <point x="305" y="682"/>
      <point x="263" y="694"/>
      <point x="220" y="694" type="curve" smooth="yes"/>
      <point x="177" y="694"/>
      <point x="134" y="683"/>
      <point x="97" y="655" type="curve"/>
      <point x="97" y="65" type="line"/>
      <point x="134" y="37"/>
      <point x="176" y="26"/>
      <point x="220" y="26" type="curve" smooth="yes"/>
      <point x="263" y="26"/>
      <point x="305" y="37"/>
      <point x="342" y="65" type="curve"/>
      <point x="342" y="233" type="line"/>
      <point x="379" y="233" type="line"/>
    </contour>
  </outline>
</glyph>
<glyph name="D" format="1">
  <advance width="445"/>
  <unicode hex="0044"/>
  <outline>
    <contour>
      <point x="385" y="77" type="line"/>
      <point x="345" y="29"/>
      <point x="287" y="0"/>
      <point x="197" y="0" type="curve" smooth="yes"/>
      <point x="68" y="0" type="line"/>
      <point x="68" y="720" type="line"/>
      <point x="197" y="720" type="line" smooth="yes"/>
      <point x="286" y="720"/>
      <point x="344" y="691"/>
      <point x="385" y="643" type="curve"/>
    </contour>
    <contour>
      <point x="348" y="93" type="curve"/>
      <point x="348" y="628" type="line"/>
      <point x="317" y="664"/>
      <point x="268" y="687"/>
      <point x="196" y="687" type="curve" smooth="yes"/>
      <point x="105" y="687" type="line"/>
      <point x="105" y="33" type="line"/>
      <point x="196" y="33" type="line" smooth="yes"/>
      <point x="268" y="33"/>
      <point x="317" y="56"/>
    </contour>
  </outline>
</glyph>
<glyph name="E" format="1">
  <advance width="439"/>
  <unicode hex="0045"/>
  <outline>
    <contour>
      <point x="379" y="41" type="line"/>
      <point x="331" y="7"/>
      <point x="274" y="-7"/>
      <point x="220" y="-7" type="curve" smooth="yes"/>
      <point x="165" y="-7"/>
      <point x="109" y="6"/>
      <point x="60" y="41" type="curve"/>
      <point x="60" y="679" type="line"/>
      <point x="108" y="713"/>
      <point x="165" y="727"/>
      <point x="220" y="727" type="curve" smooth="yes"/>
      <point x="273" y="727"/>
      <point x="331" y="714"/>
      <point x="379" y="679" type="curve"/>
      <point x="379" y="487" type="line"/>
      <point x="342" y="487" type="line"/>
      <point x="342" y="659" type="line"/>
      <point x="305" y="683"/>
      <point x="263" y="694"/>
      <point x="220" y="694" type="curve" smooth="yes"/>
      <point x="177" y="694"/>
      <point x="134" y="684"/>
      <point x="97" y="659" type="curve"/>
      <point x="97" y="388" type="line"/>
      <point x="283" y="388" type="line"/>
      <point x="283" y="354" type="line"/>
      <point x="97" y="354" type="line"/>
      <point x="97" y="61" type="line"/>
      <point x="134" y="36"/>
      <point x="176" y="26"/>
      <point x="220" y="26" type="curve" smooth="yes"/>
      <point x="263" y="26"/>
      <point x="305" y="36"/>
      <point x="342" y="61" type="curve"/>
      <point x="342" y="233" type="line"/>
      <point x="379" y="233" type="line"/>
    </contour>
  </outline>
</glyph>
<glyph name="F" format="1">
  <advance width="409"/>
  <unicode hex="0046"/>
  <outline>
    <contour>
      <point x="366" y="487" type="line"/>
      <point x="329" y="487" type="line"/>
      <point x="329" y="661" type="line"/>
      <point x="293" y="686"/>
      <point x="253" y="694"/>
      <point x="213" y="694" type="curve" smooth="yes"/>
      <point x="174" y="694"/>
      <point x="134" y="686"/>
      <point x="97" y="661" type="curve"/>
      <point x="97" y="376" type="line"/>
      <point x="280" y="376" type="line"/>
      <point x="280" y="341" type="line"/>
      <point x="97" y="341" type="line"/>
      <point x="97" y="0" type="line"/>
      <point x="60" y="0" type="line"/>
      <point x="60" y="681" type="line"/>
      <point x="108" y="715"/>
      <point x="159" y="727"/>
      <point x="213" y="727" type="curve" smooth="yes"/>
      <point x="266" y="727"/>
      <point x="318" y="715"/>
      <point x="366" y="681" type="curve"/>
    </contour>
  </outline>
</glyph>
<glyph name="G" format="1">
  <advance width="446"/>
  <unicode hex="0047"/>
  <outline>
    <contour>
      <point x="386" y="46" type="line"/>
      <point x="338" y="8"/>
      <point x="279" y="-7"/>
      <point x="223" y="-7" type="curve" smooth="yes"/>
      <point x="167" y="-7"/>
      <point x="109" y="8"/>
      <point x="60" y="46" type="curve"/>
      <point x="60" y="674" type="line"/>
      <point x="108" y="712"/>
      <point x="167" y="727"/>
      <point x="223" y="727" type="curve" smooth="yes"/>
      <point x="278" y="727"/>
      <point x="338" y="712"/>
      <point x="386" y="674" type="curve"/>
      <point x="386" y="487" type="line"/>
      <point x="349" y="487" type="line"/>
      <point x="349" y="655" type="line"/>
      <point x="312" y="682"/>
      <point x="268" y="694"/>
      <point x="223" y="694" type="curve" smooth="yes"/>
      <point x="179" y="694"/>
      <point x="134" y="683"/>
      <point x="97" y="655" type="curve"/>
      <point x="97" y="65" type="line"/>
      <point x="134" y="37"/>
      <point x="178" y="26"/>
      <point x="223" y="26" type="curve" smooth="yes"/>
      <point x="268" y="26"/>
      <point x="312" y="37"/>
      <point x="349" y="65" type="curve"/>
      <point x="349" y="339" type="line"/>
      <point x="244" y="339" type="line"/>
      <point x="244" y="373" type="line"/>
      <point x="386" y="373" type="line"/>
    </contour>
  </outline>
</glyph>
<glyph name="H" format="1">
  <advance width="454"/>
  <unicode hex="0048"/>
  <outline>
    <contour>
      <point x="386" y="0" type="line"/>
      <point x="349" y="0" type="line"/>
      <point x="349" y="354" type="line"/>
      <point x="105" y="354" type="line"/>
      <point x="105" y="0" type="line"/>
      <point x="68" y="0" type="line"/>
      <point x="68" y="720" type="line"/>
      <point x="105" y="720" type="line"/>
      <point x="105" y="388" type="line"/>
      <point x="349" y="388" type="line"/>
      <point x="349" y="720" type="line"/>
      <point x="386" y="720" type="line"/>
    </contour>
  </outline>
</glyph>
<glyph name="J" format="1">
  <advance width="276"/>
  <unicode hex="004A"/>
  <outline>
    <contour>
      <point x="211" y="58" type="line"/>
      <point x="172" y="15"/>
      <point x="127" y="0"/>
      <point x="70" y="0" type="curve" smooth="yes"/>
      <point x="38" y="0" type="line"/>
      <point x="38" y="33" type="line"/>
      <point x="70" y="33" type="line" smooth="yes"/>
      <point x="111" y="33"/>
      <point x="146" y="44"/>
      <point x="174" y="75" type="curve"/>
      <point x="174" y="720" type="line"/>
      <point x="211" y="720" type="line"/>
    </contour>
  </outline>
</glyph>
<glyph name="K" format="1">
  <advance width="438"/>
  <unicode hex="004B"/>
  <outline>
    <contour>
      <point x="375" y="0" type="line"/>
      <point x="338" y="0" type="line"/>
      <point x="338" y="304" type="line"/>
      <point x="309" y="338"/>
      <point x="267" y="355"/>
      <point x="213" y="355" type="curve" smooth="yes"/>
      <point x="105" y="355" type="line"/>
      <point x="105" y="0" type="line"/>
      <point x="68" y="0" type="line"/>
      <point x="68" y="720" type="line"/>
      <point x="105" y="720" type="line"/>
      <point x="105" y="386" type="line"/>
      <point x="212" y="386" type="line" smooth="yes"/>
      <point x="264" y="386"/>
      <point x="308" y="403"/>
      <point x="335" y="436" type="curve"/>
      <point x="335" y="720" type="line"/>
      <point x="372" y="720" type="line"/>
      <point x="372" y="424" type="line"/>
      <point x="349" y="398"/>
      <point x="311" y="377"/>
      <point x="278" y="371" type="curve"/>
      <point x="312" y="364"/>
      <point x="348" y="346"/>
      <point x="375" y="316" type="curve"/>
    </contour>
  </outline>
</glyph>
<glyph name="L" format="1">
  <advance width="360"/>
  <unicode hex="004C"/>
  <outline>
    <contour>
      <point x="325" y="0" type="line"/>
      <point x="68" y="0" type="line"/>
      <point x="68" y="720" type="line"/>
      <point x="105" y="720" type="line"/>
      <point x="105" y="33" type="line"/>
      <point x="325" y="33" type="line"/>
    </contour>
  </outline>
</glyph>
<glyph name="M" format="1">
  <advance width="560"/>
  <unicode hex="004D"/>
  <outline>
    <contour>
      <point x="495" y="0" type="line"/>
      <point x="458" y="0" type="line"/>
      <point x="458" y="653" type="line"/>
      <point x="416" y="679"/>
      <point x="357" y="692"/>
      <point x="298" y="693" type="curve"/>
      <point x="298" y="0" type="line"/>
      <point x="262" y="0" type="line"/>
      <point x="262" y="693" type="line"/>
      <point x="203" y="692"/>
      <point x="144" y="679"/>
      <point x="102" y="653" type="curve"/>
      <point x="102" y="0" type="line"/>
      <point x="65" y="0" type="line"/>
      <point x="65" y="672" type="line"/>
      <point x="125" y="710"/>
      <point x="199" y="727"/>
      <point x="280" y="727" type="curve" smooth="yes"/>
      <point x="362" y="727"/>
      <point x="436" y="710"/>
      <point x="495" y="672" type="curve"/>
    </contour>
  </outline>
</glyph>
<glyph name="N" format="1">
  <advance width="456"/>
  <unicode hex="004E"/>
  <outline>
    <contour>
      <point x="391" y="0" type="line"/>
      <point x="354" y="0" type="line"/>
      <point x="354" y="650" type="line"/>
      <point x="319" y="680"/>
      <point x="277" y="694"/>
      <point x="228" y="694" type="curve" smooth="yes"/>
      <point x="180" y="694"/>
      <point x="138" y="681"/>
      <point x="102" y="650" type="curve"/>
      <point x="102" y="0" type="line"/>
      <point x="65" y="0" type="line"/>
      <point x="65" y="667" type="line"/>
      <point x="110" y="707"/>
      <point x="169" y="727"/>
      <point x="228" y="727" type="curve" smooth="yes"/>
      <point x="287" y="727"/>
      <point x="347" y="708"/>
      <point x="391" y="667" type="curve"/>
    </contour>
  </outline>
</glyph>
<glyph name="O" format="1">
  <advance width="456"/>
  <unicode hex="004F"/>
  <outline>
    <contour>
      <point x="396" y="54" type="line"/>
      <point x="348" y="12"/>
      <point x="292" y="-7"/>
      <point x="228" y="-7" type="curve" smooth="yes"/>
      <point x="165" y="-7"/>
      <point x="109" y="12"/>
      <point x="60" y="54" type="curve"/>
      <point x="60" y="666" type="line"/>
      <point x="108" y="708"/>
      <point x="164" y="727"/>
      <point x="228" y="727" type="curve" smooth="yes"/>
      <point x="291" y="727"/>
      <point x="348" y="708"/>
      <point x="396" y="666" type="curve"/>
    </contour>
    <contour>
      <point x="359" y="72" type="curve"/>
      <point x="359" y="648" type="line"/>
      <point x="322" y="679"/>
      <point x="279" y="694"/>
      <point x="228" y="694" type="curve" smooth="yes"/>
      <point x="177" y="694"/>
      <point x="134" y="679"/>
      <point x="97" y="648" type="curve"/>
      <point x="97" y="72" type="line"/>
      <point x="134" y="41"/>
      <point x="177" y="26"/>
      <point x="228" y="26" type="curve" smooth="yes"/>
      <point x="279" y="26"/>
      <point x="322" y="41"/>
    </contour>
  </outline>
</glyph>
<glyph name="P" format="1">
  <advance width="393"/>
  <unicode hex="0050"/>
  <outline>
    <contour>
      <point x="350" y="383" type="line"/>
      <point x="310" y="336"/>
      <point x="263" y="317"/>
      <point x="193" y="317" type="curve" smooth="yes"/>
      <point x="105" y="317" type="line"/>
      <point x="105" y="0" type="line"/>
      <point x="68" y="0" type="line"/>
      <point x="68" y="720" type="line"/>
      <point x="193" y="720" type="line" smooth="yes"/>
      <point x="263" y="720"/>
      <point x="310" y="702"/>
      <point x="350" y="654" type="curve"/>
    </contour>
    <contour>
      <point x="313" y="399" type="curve"/>
      <point x="313" y="639" type="line"/>
      <point x="283" y="674"/>
      <point x="244" y="687"/>
      <point x="192" y="687" type="curve" smooth="yes"/>
      <point x="105" y="687" type="line"/>
      <point x="105" y="351" type="line"/>
      <point x="192" y="351" type="line" smooth="yes"/>
      <point x="244" y="351"/>
      <point x="282" y="363"/>
    </contour>
  </outline>
</glyph>
<glyph name="Q" format="1">
  <advance width="456"/>
  <unicode hex="0051"/>
  <outline>
    <contour>
      <point x="396" y="54" type="line"/>
      <point x="352" y="16"/>
      <point x="302" y="-3"/>
      <point x="245" y="-6" type="curve"/>
      <point x="245" y="-95" type="line"/>
      <point x="211" y="-95" type="line"/>
      <point x="211" y="-6" type="line"/>
      <point x="154" y="-3"/>
      <point x="104" y="16"/>
      <point x="60" y="54" type="curve"/>
      <point x="60" y="666" type="line"/>
      <point x="108" y="708"/>
      <point x="164" y="727"/>
      <point x="228" y="727" type="curve" smooth="yes"/>
      <point x="291" y="727"/>
      <point x="348" y="708"/>
      <point x="396" y="666" type="curve"/>
    </contour>
    <contour>
      <point x="359" y="72" type="curve"/>
      <point x="359" y="648" type="line"/>
      <point x="322" y="679"/>
      <point x="279" y="694"/>
      <point x="228" y="694" type="curve" smooth="yes"/>
      <point x="177" y="694"/>
      <point x="134" y="679"/>
      <point x="97" y="648" type="curve"/>
      <point x="97" y="72" type="line"/>
      <point x="130" y="44"/>
      <point x="167" y="30"/>
      <point x="211" y="26" type="curve"/>
      <point x="211" y="161" type="line"/>
      <point x="245" y="161" type="line"/>
      <point x="245" y="26" type="line"/>
      <point x="289" y="30"/>
      <point x="326" y="44"/>
    </contour>
  </outline>
</glyph>
<glyph name="R" format="1">
  <advance width="423"/>
  <unicode hex="0052"/>
  <outline>
    <contour>
      <point x="365" y="0" type="line"/>
      <point x="328" y="0" type="line"/>
      <point x="328" y="297" type="line"/>
      <point x="298" y="328"/>
      <point x="259" y="340"/>
      <point x="211" y="340" type="curve" smooth="yes"/>
      <point x="105" y="340" type="line"/>
      <point x="105" y="0" type="line"/>
      <point x="68" y="0" type="line"/>
      <point x="68" y="720" type="line"/>
      <point x="207" y="720" type="line" smooth="yes"/>
      <point x="278" y="720"/>
      <point x="323" y="704"/>
      <point x="362" y="656" type="curve"/>
      <point x="362" y="402" type="line"/>
      <point x="339" y="377"/>
      <point x="306" y="362"/>
      <point x="276" y="356" type="curve"/>
      <point x="306" y="351"/>
      <point x="340" y="335"/>
      <point x="365" y="309" type="curve"/>
    </contour>
    <contour>
      <point x="325" y="415" type="curve"/>
      <point x="325" y="641" type="line"/>
      <point x="295" y="677"/>
      <point x="258" y="687"/>
      <point x="207" y="687" type="curve" smooth="yes"/>
      <point x="105" y="687" type="line"/>
      <point x="105" y="372" type="line"/>
      <point x="210" y="372" type="line" smooth="yes"/>
      <point x="259" y="372"/>
      <point x="299" y="385"/>
    </contour>
  </outline>
</glyph>
<glyph name="S" format="1">
  <advance width="426"/>
  <unicode hex="0053"/>
  <outline>
    <contour>
      <point x="366" y="42" type="line"/>
      <point x="318" y="7"/>
      <point x="267" y="-7"/>
      <point x="213" y="-7" type="curve" smooth="yes"/>
      <point x="160" y="-7"/>
      <point x="109" y="7"/>
      <point x="60" y="42" type="curve"/>
      <point x="60" y="233" type="line"/>
      <point x="97" y="233" type="line"/>
      <point x="97" y="61" type="line"/>
      <point x="134" y="36"/>
      <point x="171" y="26"/>
      <point x="213" y="26" type="curve" smooth="yes"/>
      <point x="255" y="26"/>
      <point x="292" y="36"/>
      <point x="329" y="61" type="curve"/>
      <point x="329" y="266" type="line"/>
      <point x="62" y="439" type="line"/>
      <point x="62" y="678" type="line"/>
      <point x="110" y="713"/>
      <point x="157" y="727"/>
      <point x="213" y="727" type="curve" smooth="yes"/>
      <point x="268" y="727"/>
      <point x="316" y="713"/>
      <point x="364" y="678" type="curve"/>
      <point x="364" y="487" type="line"/>
      <point x="328" y="487" type="line"/>
      <point x="328" y="659" type="line"/>
      <point x="291" y="684"/>
      <point x="257" y="694"/>
      <point x="213" y="694" type="curve" smooth="yes"/>
      <point x="170" y="694"/>
      <point x="136" y="684"/>
      <point x="99" y="659" type="curve"/>
      <point x="99" y="456" type="line"/>
      <point x="366" y="282" type="line"/>
    </contour>
  </outline>
</glyph>
<glyph name="T" format="1">
  <advance width="379"/>
  <unicode hex="0054"/>
  <outline>
    <contour>
      <point x="349" y="687" type="line"/>
      <point x="208" y="687" type="line"/>
      <point x="208" y="0" type="line"/>
      <point x="171" y="0" type="line"/>
      <point x="171" y="687" type="line"/>
      <point x="30" y="687" type="line"/>
      <point x="30" y="720" type="line"/>
      <point x="349" y="720" type="line"/>
    </contour>
  </outline>
</glyph>
<glyph name="U" format="1">
  <advance width="456"/>
  <unicode hex="0055"/>
  <outline>
    <contour>
      <point x="391" y="53" type="line"/>
      <point x="347" y="13"/>
      <point x="288" y="-7"/>
      <point x="228" y="-7" type="curve" smooth="yes"/>
      <point x="169" y="-7"/>
      <point x="110" y="12"/>
      <point x="65" y="53" type="curve"/>
      <point x="65" y="720" type="line"/>
      <point x="102" y="720" type="line"/>
      <point x="102" y="70" type="line"/>
      <point x="138" y="40"/>
      <point x="179" y="26"/>
      <point x="228" y="26" type="curve" smooth="yes"/>
      <point x="276" y="26"/>
      <point x="318" y="39"/>
      <point x="354" y="70" type="curve"/>
      <point x="354" y="720" type="line"/>
      <point x="391" y="720" type="line"/>
    </contour>
  </outline>
</glyph>
<glyph name="V" format="1">
  <advance width="453"/>
  <unicode hex="0056"/>
  <outline>
    <contour>
      <point x="389" y="443" type="line" smooth="yes"/>
      <point x="389" y="207"/>
      <point x="322" y="94"/>
      <point x="244" y="-3" type="curve"/>
      <point x="209" y="-3" type="line"/>
      <point x="131" y="94"/>
      <point x="64" y="207"/>
      <point x="64" y="443" type="curve" smooth="yes"/>
      <point x="64" y="720" type="line"/>
      <point x="101" y="720" type="line"/>
      <point x="101" y="444" type="line" smooth="yes"/>
      <point x="101" y="225"/>
      <point x="161" y="118"/>
      <point x="227" y="39" type="curve"/>
      <point x="292" y="118"/>
      <point x="353" y="225"/>
      <point x="353" y="444" type="curve" smooth="yes"/>
      <point x="353" y="720" type="line"/>
      <point x="389" y="720" type="line"/>
    </contour>
  </outline>
</glyph>
<glyph name="W" format="1">
  <advance width="560"/>
  <unicode hex="0057"/>
  <outline>
    <contour>
      <point x="495" y="48" type="line"/>
      <point x="436" y="11"/>
      <point x="362" y="-7"/>
      <point x="280" y="-7" type="curve" smooth="yes"/>
      <point x="199" y="-7"/>
      <point x="125" y="10"/>
      <point x="65" y="48" type="curve"/>
      <point x="65" y="720" type="line"/>
      <point x="102" y="720" type="line"/>
      <point x="102" y="67" type="line"/>
      <point x="144" y="42"/>
      <point x="203" y="29"/>
      <point x="262" y="27" type="curve"/>
      <point x="262" y="720" type="line"/>
      <point x="298" y="720" type="line"/>
      <point x="298" y="27" type="line"/>
      <point x="357" y="28"/>
      <point x="416" y="41"/>
      <point x="458" y="67" type="curve"/>
      <point x="458" y="720" type="line"/>
      <point x="495" y="720" type="line"/>
    </contour>
  </outline>
</glyph>
<glyph name="X" format="1">
  <advance width="420"/>
  <unicode hex="0058"/>
  <outline>
    <contour>
      <point x="356" y="0" type="line"/>
      <point x="319" y="0" type="line"/>
      <point x="319" y="314" type="line"/>
      <point x="292" y="343"/>
      <point x="254" y="355"/>
      <point x="210" y="355" type="curve" smooth="yes"/>
      <point x="166" y="355"/>
      <point x="128" y="343"/>
      <point x="100" y="314" type="curve"/>
      <point x="100" y="0" type="line"/>
      <point x="64" y="0" type="line"/>
      <point x="64" y="323" type="line"/>
      <point x="88" y="349"/>
      <point x="124" y="367"/>
      <point x="154" y="371" type="curve"/>
      <point x="124" y="378"/>
      <point x="90" y="395"/>
      <point x="66" y="420" type="curve"/>
      <point x="66" y="720" type="line"/>
      <point x="103" y="720" type="line"/>
      <point x="103" y="429" type="line"/>
      <point x="128" y="402"/>
      <point x="167" y="389"/>
      <point x="210" y="389" type="curve" smooth="yes"/>
      <point x="253" y="389"/>
      <point x="292" y="402"/>
      <point x="316" y="429" type="curve"/>
      <point x="316" y="720" type="line"/>
      <point x="353" y="720" type="line"/>
      <point x="353" y="420" type="line"/>
      <point x="330" y="395"/>
      <point x="296" y="378"/>
      <point x="266" y="371" type="curve"/>
      <point x="296" y="367"/>
      <point x="332" y="349"/>
      <point x="356" y="323" type="curve"/>
    </contour>
  </outline>
</glyph>
<glyph name="Y" format="1">
  <advance width="427"/>
  <unicode hex="0059"/>
  <outline>
    <contour>
      <point x="364" y="354" type="line"/>
      <point x="329" y="319"/>
      <point x="279" y="301"/>
      <point x="232" y="297" type="curve"/>
      <point x="232" y="0" type="line"/>
      <point x="195" y="0" type="line"/>
      <point x="195" y="297" type="line"/>
      <point x="149" y="301"/>
      <point x="98" y="319"/>
      <point x="63" y="354" type="curve"/>
      <point x="63" y="720" type="line"/>
      <point x="100" y="720" type="line"/>
      <point x="100" y="370" type="line"/>
      <point x="130" y="340"/>
      <point x="173" y="329"/>
      <point x="214" y="329" type="curve" smooth="yes"/>
      <point x="254" y="329"/>
      <point x="296" y="340"/>
      <point x="328" y="370" type="curve"/>
      <point x="328" y="720" type="line"/>
      <point x="364" y="720" type="line"/>
    </contour>
  </outline>
</glyph>
<glyph name="Z" format="1">
  <advance width="396"/>
  <unicode hex="005A"/>
  <outline>
    <contour>
      <point x="342" y="0" type="line"/>
      <point x="50" y="0" type="line"/>
      <point x="50" y="28" type="line"/>
      <point x="300" y="687" type="line"/>
      <point x="60" y="687" type="line"/>
      <point x="60" y="720" type="line"/>
      <point x="341" y="720" type="line"/>
      <point x="341" y="690" type="line"/>
      <point x="93" y="33" type="line"/>
      <point x="342" y="33" type="line"/>
    </contour>
  </outline>
</glyph>
<glyph name="bracketleft" format="1">
  <advance width="234"/>
  <unicode hex="005B"/>
  <outline>
    <contour>
      <point x="190" y="0" type="line"/>
      <point x="68" y="0" type="line"/>
      <point x="68" y="720" type="line"/>
      <point x="190" y="720" type="line"/>
      <point x="190" y="687" type="line"/>
      <point x="104" y="687" type="line"/>
      <point x="104" y="33" type="line"/>
      <point x="190" y="33" type="line"/>
    </contour>
  </outline>
</glyph>
<glyph name="backslash" format="1">
  <advance width="278"/>
  <unicode hex="005C"/>
  <outline>
    <contour>
      <point x="238" y="0" type="line"/>
      <point x="202" y="0" type="line"/>
      <point x="39" y="720" type="line"/>
      <point x="75" y="720" type="line"/>
    </contour>
  </outline>
</glyph>
<glyph name="bracketright" format="1">
  <advance width="234"/>
  <unicode hex="005D"/>
  <outline>
    <contour>
      <point x="166" y="0" type="line"/>
      <point x="44" y="0" type="line"/>
      <point x="44" y="33" type="line"/>
      <point x="129" y="33" type="line"/>
      <point x="129" y="687" type="line"/>
      <point x="44" y="687" type="line"/>
      <point x="44" y="720" type="line"/>
      <point x="166" y="720" type="line"/>
    </contour>
  </outline>
</glyph>
<glyph name="asciicircum" format="1">
  <advance width="338"/>
  <unicode hex="005E"/>
  <outline>
    <contour>
      <point x="298" y="350" type="line"/>
      <point x="261" y="350" type="line"/>
      <point x="169" y="666" type="line"/>
      <point x="77" y="350" type="line"/>
      <point x="39" y="350" type="line"/>
      <point x="151" y="725" type="line"/>
      <point x="187" y="725" type="line"/>
    </contour>
  </outline>
</glyph>
<glyph name="underscore" format="1">
  <advance width="329"/>
  <unicode hex="005F"/>
  <outline>
    <contour>
      <point x="328" y="-88" type="line"/>
      <point x="1" y="-88" type="line"/>
      <point x="1" y="-53" type="line"/>
      <point x="328" y="-53" type="line"/>
    </contour>
  </outline>
</glyph>
<glyph name="grave" format="1">
  <advance width="307"/>
  <unicode hex="0060"/>
  <outline>
    <contour>
      <point x="209" y="535" type="line"/>
      <point x="169" y="535" type="line"/>
      <point x="98" y="663" type="line"/>
      <point x="141" y="663" type="line"/>
    </contour>
  </outline>
</glyph>
<glyph name="a" format="1">
  <advance width="322"/>
  <unicode hex="0061"/>
  <outline>
    <contour>
      <point x="274" y="30" type="line"/>
      <point x="243" y="4"/>
      <point x="203" y="-7"/>
      <point x="160" y="-7" type="curve" smooth="yes"/>
      <point x="117" y="-7"/>
      <point x="78" y="4"/>
      <point x="46" y="30" type="curve"/>
      <point x="46" y="258" type="line"/>
      <point x="75" y="280"/>
      <point x="114" y="291"/>
      <point x="155" y="291" type="curve" smooth="yes"/>
      <point x="187" y="291"/>
      <point x="215" y="284"/>
      <point x="239" y="273" type="curve"/>
      <point x="239" y="432" type="line"/>
      <point x="217" y="450"/>
      <point x="187" y="455"/>
      <point x="161" y="455" type="curve" smooth="yes"/>
      <point x="134" y="455"/>
      <point x="106" y="450"/>
      <point x="83" y="433" type="curve"/>
      <point x="83" y="350" type="line"/>
      <point x="47" y="350" type="line"/>
      <point x="47" y="451" type="line"/>
      <point x="79" y="477"/>
      <point x="120" y="487"/>
      <point x="161" y="487" type="curve" smooth="yes"/>
      <point x="201" y="487"/>
      <point x="242" y="476"/>
      <point x="274" y="450" type="curve"/>
    </contour>
    <contour>
      <point x="239" y="48" type="curve"/>
      <point x="239" y="240" type="line"/>
      <point x="217" y="252"/>
      <point x="191" y="259"/>
      <point x="160" y="259" type="curve" smooth="yes"/>
      <point x="133" y="259"/>
      <point x="104" y="255"/>
      <point x="81" y="238" type="curve"/>
      <point x="81" y="48" type="line"/>
      <point x="103" y="31"/>
      <point x="132" y="25"/>
      <point x="160" y="25" type="curve" smooth="yes"/>
      <point x="188" y="25"/>
      <point x="217" y="30"/>
    </contour>
  </outline>
</glyph>
<glyph name="b" format="1">
  <advance width="340"/>
  <unicode hex="0062"/>
  <outline>
    <contour>
      <point x="292" y="34" type="line"/>
      <point x="262" y="7"/>
      <point x="217" y="-7"/>
      <point x="172" y="-7" type="curve" smooth="yes"/>
      <point x="126" y="-7"/>
      <point x="81" y="8"/>
      <point x="52" y="34" type="curve"/>
      <point x="52" y="720" type="line"/>
      <point x="88" y="720" type="line"/>
      <point x="88" y="465" type="line"/>
      <point x="112" y="478"/>
      <point x="142" y="487"/>
      <point x="176" y="487" type="curve" smooth="yes"/>
      <point x="219" y="487"/>
      <point x="262" y="474"/>
      <point x="292" y="446" type="curve"/>
    </contour>
    <contour>
      <point x="256" y="52" type="curve"/>
      <point x="256" y="429" type="line"/>
      <point x="235" y="447"/>
      <point x="200" y="455"/>
      <point x="172" y="455" type="curve" smooth="yes"/>
      <point x="138" y="455"/>
      <point x="111" y="446"/>
      <point x="88" y="430" type="curve"/>
      <point x="88" y="52" type="line"/>
      <point x="110" y="33"/>
      <point x="144" y="25"/>
      <point x="172" y="25" type="curve" smooth="yes"/>
      <point x="201" y="25"/>
      <point x="235" y="33"/>
    </contour>
  </outline>
</glyph>
<glyph name="c" format="1">
  <advance width="322"/>
  <unicode hex="0063"/>
  <outline>
    <contour>
      <point x="278" y="31" type="line"/>
      <point x="246" y="4"/>
      <point x="204" y="-7"/>
      <point x="163" y="-7" type="curve" smooth="yes"/>
      <point x="123" y="-7"/>
      <point x="80" y="4"/>
      <point x="48" y="31" type="curve"/>
      <point x="48" y="449" type="line"/>
      <point x="80" y="476"/>
      <point x="122" y="487"/>
      <point x="163" y="487" type="curve" smooth="yes"/>
      <point x="203" y="487"/>
      <point x="246" y="476"/>
      <point x="278" y="449" type="curve"/>
      <point x="278" y="323" type="line"/>
      <point x="242" y="323" type="line"/>
      <point x="242" y="431" type="line"/>
      <point x="220" y="449"/>
      <point x="189" y="455"/>
      <point x="163" y="455" type="curve" smooth="yes"/>
      <point x="137" y="455"/>
      <point x="107" y="450"/>
      <point x="84" y="431" type="curve"/>
      <point x="84" y="49" type="line"/>
      <point x="106" y="31"/>
      <point x="136" y="25"/>
      <point x="163" y="25" type="curve" smooth="yes"/>
      <point x="189" y="25"/>
      <point x="220" y="30"/>
      <point x="242" y="49" type="curve"/>
      <point x="242" y="158" type="line"/>
      <point x="278" y="158" type="line"/>
    </contour>
  </outline>
</glyph>
<glyph name="e" format="1">
  <advance width="323"/>
  <unicode hex="0065"/>
  <outline>
    <contour>
      <point x="276" y="31" type="line"/>
      <point x="244" y="4"/>
      <point x="203" y="-7"/>
      <point x="162" y="-7" type="curve" smooth="yes"/>
      <point x="122" y="-7"/>
      <point x="80" y="4"/>
      <point x="48" y="31" type="curve"/>
      <point x="48" y="448" type="line"/>
      <point x="79" y="475"/>
      <point x="120" y="487"/>
      <point x="162" y="487" type="curve" smooth="yes"/>
      <point x="203" y="487"/>
      <point x="245" y="475"/>
      <point x="276" y="448" type="curve"/>
      <point x="276" y="232" type="line"/>
      <point x="83" y="232" type="line"/>
      <point x="83" y="49" type="line"/>
      <point x="106" y="31"/>
      <point x="136" y="25"/>
      <point x="162" y="25" type="curve" smooth="yes"/>
      <point x="188" y="25"/>
      <point x="218" y="30"/>
      <point x="240" y="49" type="curve"/>
      <point x="240" y="155" type="line"/>
      <point x="276" y="155" type="line"/>
    </contour>
    <contour>
      <point x="240" y="262" type="line"/>
      <point x="240" y="430" type="line"/>
      <point x="219" y="448"/>
      <point x="190" y="455"/>
      <point x="162" y="455" type="curve" smooth="yes"/>
      <point x="135" y="455"/>
      <point x="106" y="449"/>
      <point x="83" y="430" type="curve"/>
      <point x="83" y="262" type="line"/>
    </contour>
  </outline>
</glyph>
<glyph name="g" format="1">
  <advance width="340"/>
  <unicode hex="0067"/>
  <outline>
    <contour>
      <point x="288" y="-144" type="line"/>
      <point x="259" y="-169"/>
      <point x="213" y="-182"/>
      <point x="168" y="-182" type="curve" smooth="yes"/>
      <point x="124" y="-182"/>
      <point x="78" y="-170"/>
      <point x="48" y="-145" type="curve"/>
      <point x="48" y="-57" type="line"/>
      <point x="84" y="-57" type="line"/>
      <point x="84" y="-127" type="line"/>
      <point x="106" y="-145"/>
      <point x="139" y="-150"/>
      <point x="168" y="-150" type="curve" smooth="yes"/>
      <point x="197" y="-150"/>
      <point x="230" y="-144"/>
      <point x="252" y="-126" type="curve"/>
      <point x="252" y="15" type="line"/>
      <point x="228" y="2"/>
      <point x="197" y="-7"/>
      <point x="164" y="-7" type="curve" smooth="yes"/>
      <point x="121" y="-7"/>
      <point x="78" y="6"/>
      <point x="48" y="34" type="curve"/>
      <point x="48" y="446" type="line"/>
      <point x="78" y="473"/>
      <point x="123" y="487"/>
      <point x="168" y="487" type="curve" smooth="yes"/>
      <point x="214" y="487"/>
      <point x="259" y="473"/>
      <point x="288" y="446" type="curve"/>
    </contour>
    <contour>
      <point x="252" y="50" type="curve"/>
      <point x="252" y="428" type="line"/>
      <point x="231" y="447"/>
      <point x="196" y="455"/>
      <point x="168" y="455" type="curve" smooth="yes"/>
      <point x="139" y="455"/>
      <point x="105" y="447"/>
      <point x="84" y="428" type="curve"/>
      <point x="84" y="52" type="line"/>
      <point x="106" y="33"/>
      <point x="140" y="25"/>
      <point x="168" y="25" type="curve" smooth="yes"/>
      <point x="201" y="25"/>
      <point x="230" y="34"/>
    </contour>
  </outline>
</glyph>
<glyph name="h" format="1">
  <advance width="342"/>
  <unicode hex="0068"/>
  <outline>
    <contour>
      <point x="290" y="0" type="line"/>
      <point x="254" y="0" type="line"/>
      <point x="254" y="430" type="line"/>
      <point x="232" y="449"/>
      <point x="197" y="455"/>
      <point x="171" y="455" type="curve" smooth="yes"/>
      <point x="140" y="455"/>
      <point x="111" y="447"/>
      <point x="88" y="431" type="curve"/>
      <point x="88" y="0" type="line"/>
      <point x="52" y="0" type="line"/>
      <point x="52" y="720" type="line"/>
      <point x="88" y="720" type="line"/>
      <point x="88" y="465" type="line"/>
      <point x="112" y="479"/>
      <point x="142" y="487"/>
      <point x="176" y="487" type="curve" smooth="yes"/>
      <point x="218" y="487"/>
      <point x="260" y="475"/>
      <point x="290" y="448" type="curve"/>
    </contour>
  </outline>
</glyph>
<glyph name="i" format="1">
  <advance width="146"/>
  <unicode hex="0069"/>
  <outline>
    <contour>
      <point x="92" y="620" type="line"/>
      <point x="54" y="620" type="line"/>
      <point x="54" y="720" type="line"/>
      <point x="92" y="720" type="line"/>
    </contour>
    <contour>
      <point x="91" y="0" type="line"/>
      <point x="55" y="0" type="line"/>
      <point x="55" y="480" type="line"/>
      <point x="91" y="480" type="line"/>
    </contour>
  </outline>
</glyph>
<glyph name="j" format="1">
  <advance width="146"/>
  <unicode hex="006A"/>
  <outline>
    <contour>
      <point x="92" y="620" type="line"/>
      <point x="54" y="620" type="line"/>
      <point x="54" y="720" type="line"/>
      <point x="92" y="720" type="line"/>
    </contour>
    <contour>
      <point x="91" y="-136" type="line"/>
      <point x="70" y="-164"/>
      <point x="37" y="-177"/>
      <point x="0" y="-177" type="curve" smooth="yes"/>
      <point x="-15" y="-177" type="line"/>
      <point x="-15" y="-144" type="line"/>
      <point x="-2" y="-144" type="line" smooth="yes"/>
      <point x="20" y="-144"/>
      <point x="42" y="-138"/>
      <point x="55" y="-122" type="curve"/>
      <point x="55" y="480" type="line"/>
      <point x="91" y="480" type="line"/>
    </contour>
  </outline>
</glyph>
<glyph name="k" format="1">
  <advance width="314"/>
  <unicode hex="006B"/>
  <outline>
    <contour>
      <point x="266" y="0" type="line"/>
      <point x="230" y="0" type="line"/>
      <point x="230" y="182" type="line"/>
      <point x="213" y="210"/>
      <point x="182" y="227"/>
      <point x="139" y="227" type="curve" smooth="yes"/>
      <point x="88" y="227" type="line"/>
      <point x="88" y="0" type="line"/>
      <point x="52" y="0" type="line"/>
      <point x="52" y="720" type="line"/>
      <point x="88" y="720" type="line"/>
      <point x="88" y="258" type="line"/>
      <point x="138" y="258" type="line" smooth="yes"/>
      <point x="180" y="258"/>
      <point x="208" y="275"/>
      <point x="226" y="301" type="curve"/>
      <point x="226" y="480" type="line"/>
      <point x="261" y="480" type="line"/>
      <point x="261" y="291" type="line"/>
      <point x="244" y="268"/>
      <point x="222" y="251"/>
      <point x="190" y="243" type="curve"/>
      <point x="222" y="235"/>
      <point x="246" y="220"/>
      <point x="266" y="194" type="curve"/>
    </contour>
  </outline>
</glyph>
<glyph name="l" format="1">
  <advance width="146"/>
  <unicode hex="006C"/>
  <outline>
    <contour>
      <point x="91" y="0" type="line"/>
      <point x="55" y="0" type="line"/>
      <point x="55" y="720" type="line"/>
      <point x="91" y="720" type="line"/>
    </contour>
  </outline>
</glyph>
<glyph name="m" format="1">
  <advance width="461"/>
  <unicode hex="006D"/>
  <outline>
    <contour>
      <point x="409" y="0" type="line"/>
      <point x="374" y="0" type="line"/>
      <point x="374" y="426" type="line"/>
      <point x="342" y="444"/>
      <point x="304" y="453"/>
      <point x="249" y="455" type="curve"/>
      <point x="249" y="0" type="line"/>
      <point x="213" y="0" type="line"/>
      <point x="213" y="455" type="line"/>
      <point x="158" y="453"/>
      <point x="120" y="444"/>
      <point x="88" y="426" type="curve"/>
      <point x="88" y="0" type="line"/>
      <point x="52" y="0" type="line"/>
      <point x="52" y="444" type="line"/>
      <point x="102" y="474"/>
      <point x="159" y="487"/>
      <point x="231" y="487" type="curve" smooth="yes"/>
      <point x="302" y="487"/>
      <point x="359" y="474"/>
      <point x="409" y="444" type="curve"/>
    </contour>
  </outline>
</glyph>
<glyph name="n" format="1">
  <advance width="339"/>
  <unicode hex="006E"/>
  <outline>
    <contour>
      <point x="287" y="0" type="line"/>
      <point x="251" y="0" type="line"/>
      <point x="251" y="430" type="line"/>
      <point x="229" y="449"/>
      <point x="196" y="455"/>
      <point x="170" y="455" type="curve" smooth="yes"/>
      <point x="143" y="455"/>
      <point x="111" y="449"/>
      <point x="88" y="430" type="curve"/>
      <point x="88" y="0" type="line"/>
      <point x="52" y="0" type="line"/>
      <point x="52" y="449" type="line"/>
      <point x="84" y="476"/>
      <point x="129" y="487"/>
      <point x="170" y="487" type="curve" smooth="yes"/>
      <point x="210" y="487"/>
      <point x="255" y="476"/>
      <point x="287" y="449" type="curve"/>
    </contour>
  </outline>
</glyph>
<glyph name="o" format="1">
  <advance width="336"/>
  <unicode hex="006F"/>
  <outline>
    <contour>
      <point x="288" y="34" type="line"/>
      <point x="259" y="8"/>
      <point x="214" y="-7"/>
      <point x="168" y="-7" type="curve" smooth="yes"/>
      <point x="123" y="-7"/>
      <point x="78" y="7"/>
      <point x="48" y="34" type="curve"/>
      <point x="48" y="446" type="line"/>
      <point x="77" y="473"/>
      <point x="122" y="487"/>
      <point x="168" y="487" type="curve" smooth="yes"/>
      <point x="213" y="487"/>
      <point x="258" y="473"/>
      <point x="288" y="446" type="curve"/>
    </contour>
    <contour>
      <point x="252" y="52" type="curve"/>
      <point x="252" y="429" type="line"/>
      <point x="231" y="447"/>
      <point x="197" y="455"/>
      <point x="168" y="455" type="curve" smooth="yes"/>
      <point x="140" y="455"/>
      <point x="106" y="447"/>
      <point x="84" y="429" type="curve"/>
      <point x="84" y="52" type="line"/>
      <point x="105" y="33"/>
      <point x="139" y="25"/>
      <point x="168" y="25" type="curve" smooth="yes"/>
      <point x="196" y="25"/>
      <point x="231" y="33"/>
    </contour>
  </outline>
</glyph>
<glyph name="p" format="1">
  <advance width="340"/>
  <unicode hex="0070"/>
  <outline>
    <contour>
      <point x="292" y="34" type="line"/>
      <point x="262" y="6"/>
      <point x="219" y="-7"/>
      <point x="176" y="-7" type="curve" smooth="yes"/>
      <point x="142" y="-7"/>
      <point x="112" y="2"/>
      <point x="88" y="15" type="curve"/>
      <point x="88" y="-175" type="line"/>
      <point x="52" y="-175" type="line"/>
      <point x="52" y="446" type="line"/>
      <point x="81" y="473"/>
      <point x="126" y="487"/>
      <point x="172" y="487" type="curve" smooth="yes"/>
      <point x="217" y="487"/>
      <point x="262" y="473"/>
      <point x="292" y="446" type="curve"/>
    </contour>
    <contour>
      <point x="256" y="52" type="curve"/>
      <point x="256" y="428" type="line"/>
      <point x="235" y="447"/>
      <point x="201" y="455"/>
      <point x="172" y="455" type="curve" smooth="yes"/>
      <point x="144" y="455"/>
      <point x="110" y="447"/>
      <point x="88" y="428" type="curve"/>
      <point x="88" y="50" type="line"/>
      <point x="111" y="34"/>
      <point x="138" y="25"/>
      <point x="172" y="25" type="curve" smooth="yes"/>
      <point x="200" y="25"/>
      <point x="235" y="33"/>
    </contour>
  </outline>
</glyph>
<glyph name="q" format="1">
  <advance width="340"/>
  <unicode hex="0071"/>
  <outline>
    <contour>
      <point x="288" y="-175" type="line"/>
      <point x="252" y="-175" type="line"/>
      <point x="252" y="15" type="line"/>
      <point x="228" y="2"/>
      <point x="197" y="-7"/>
      <point x="164" y="-7" type="curve" smooth="yes"/>
      <point x="121" y="-7"/>
      <point x="78" y="6"/>
      <point x="48" y="34" type="curve"/>
      <point x="48" y="446" type="line"/>
      <point x="78" y="473"/>
      <point x="123" y="487"/>
      <point x="168" y="487" type="curve" smooth="yes"/>
      <point x="214" y="487"/>
      <point x="259" y="473"/>
      <point x="288" y="446" type="curve"/>
    </contour>
    <contour>
      <point x="252" y="50" type="curve"/>
      <point x="252" y="428" type="line"/>
      <point x="231" y="447"/>
      <point x="196" y="455"/>
      <point x="168" y="455" type="curve" smooth="yes"/>
      <point x="139" y="455"/>
      <point x="105" y="447"/>
      <point x="84" y="428" type="curve"/>
      <point x="84" y="52" type="line"/>
      <point x="106" y="33"/>
      <point x="140" y="25"/>
      <point x="168" y="25" type="curve" smooth="yes"/>
      <point x="201" y="25"/>
      <point x="230" y="34"/>
    </contour>
  </outline>
</glyph>
<glyph name="r" format="1">
  <advance width="214"/>
  <unicode hex="0072"/>
  <outline>
    <contour>
      <point x="194" y="450" type="line"/>
      <point x="157" y="450" type="line" smooth="yes"/>
      <point x="130" y="450"/>
      <point x="103" y="439"/>
      <point x="88" y="421" type="curve"/>
      <point x="88" y="0" type="line"/>
      <point x="52" y="0" type="line"/>
      <point x="52" y="438" type="line"/>
      <point x="76" y="466"/>
      <point x="114" y="483"/>
      <point x="156" y="483" type="curve" smooth="yes"/>
      <point x="194" y="483" type="line"/>
    </contour>
  </outline>
</glyph>
<glyph name="s" format="1">
  <advance width="321"/>
  <unicode hex="0073"/>
  <outline>
    <contour>
      <point x="271" y="28" type="line"/>
      <point x="239" y="3"/>
      <point x="201" y="-7"/>
      <point x="161" y="-7" type="curve" smooth="yes"/>
      <point x="120" y="-7"/>
      <point x="82" y="4"/>
      <point x="50" y="28" type="curve"/>
      <point x="50" y="157" type="line"/>
      <point x="86" y="157" type="line"/>
      <point x="86" y="46" type="line"/>
      <point x="108" y="30"/>
      <point x="135" y="25"/>
      <point x="161" y="25" type="curve" smooth="yes"/>
      <point x="187" y="25"/>
      <point x="213" y="30"/>
      <point x="236" y="47" type="curve"/>
      <point x="236" y="171" type="line"/>
      <point x="51" y="293" type="line"/>
      <point x="51" y="451" type="line"/>
      <point x="82" y="476"/>
      <point x="119" y="487"/>
      <point x="161" y="487" type="curve" smooth="yes"/>
      <point x="201" y="487"/>
      <point x="238" y="477"/>
      <point x="270" y="451" type="curve"/>
      <point x="270" y="323" type="line"/>
      <point x="235" y="323" type="line"/>
      <point x="235" y="434" type="line"/>
      <point x="212" y="450"/>
      <point x="187" y="455"/>
      <point x="161" y="455" type="curve" smooth="yes"/>
      <point x="134" y="455"/>
      <point x="110" y="450"/>
      <point x="86" y="434" type="curve"/>
      <point x="86" y="310" type="line"/>
      <point x="271" y="188" type="line"/>
    </contour>
  </outline>
</glyph>
<glyph name="t" format="1">
  <advance width="219"/>
  <unicode hex="0074"/>
  <outline>
    <contour>
      <point x="185" y="-4" type="line"/>
      <point x="163" y="-4" type="line" smooth="yes"/>
      <point x="126" y="-4"/>
      <point x="92" y="12"/>
      <point x="71" y="40" type="curve"/>
      <point x="71" y="447" type="line"/>
      <point x="34" y="447" type="line"/>
      <point x="34" y="480" type="line"/>
      <point x="71" y="480" type="line"/>
      <point x="71" y="640" type="line"/>
      <point x="107" y="640" type="line"/>
      <point x="107" y="480" type="line"/>
      <point x="181" y="480" type="line"/>
      <point x="181" y="447" type="line"/>
      <point x="107" y="447" type="line"/>
      <point x="107" y="54" type="line"/>
      <point x="121" y="38"/>
      <point x="142" y="29"/>
      <point x="165" y="29" type="curve" smooth="yes"/>
      <point x="185" y="29" type="line"/>
    </contour>
  </outline>
</glyph>
<glyph name="u" format="1">
  <advance width="339"/>
  <unicode hex="0075"/>
  <outline>
    <contour>
      <point x="287" y="31" type="line"/>
      <point x="255" y="4"/>
      <point x="210" y="-7"/>
      <point x="170" y="-7" type="curve" smooth="yes"/>
      <point x="129" y="-7"/>
      <point x="84" y="4"/>
      <point x="52" y="31" type="curve"/>
      <point x="52" y="480" type="line"/>
      <point x="88" y="480" type="line"/>
      <point x="88" y="50" type="line"/>
      <point x="110" y="31"/>
      <point x="143" y="25"/>
      <point x="170" y="25" type="curve" smooth="yes"/>
      <point x="196" y="25"/>
      <point x="229" y="31"/>
      <point x="251" y="50" type="curve"/>
      <point x="251" y="480" type="line"/>
      <point x="287" y="480" type="line"/>
    </contour>
  </outline>
</glyph>
<glyph name="v" format="1">
  <advance width="335"/>
  <unicode hex="0076"/>
  <outline>
    <contour>
      <point x="285" y="326" type="line" smooth="yes"/>
      <point x="285" y="166"/>
      <point x="256" y="82"/>
      <point x="184" y="-3" type="curve"/>
      <point x="152" y="-3" type="line"/>
      <point x="81" y="81"/>
      <point x="50" y="165"/>
      <point x="50" y="326" type="curve" smooth="yes"/>
      <point x="50" y="480" type="line"/>
      <point x="87" y="480" type="line"/>
      <point x="87" y="326" type="line" smooth="yes"/>
      <point x="87" y="183"/>
      <point x="110" y="103"/>
      <point x="168" y="37" type="curve"/>
      <point x="226" y="103"/>
      <point x="249" y="182"/>
      <point x="249" y="326" type="curve" smooth="yes"/>
      <point x="249" y="480" type="line"/>
      <point x="285" y="480" type="line"/>
    </contour>
  </outline>
</glyph>
<glyph name="w" format="1">
  <advance width="461"/>
  <unicode hex="0077"/>
  <outline>
    <contour>
      <point x="409" y="36" type="line"/>
      <point x="360" y="6"/>
      <point x="303" y="-7"/>
      <point x="231" y="-7" type="curve" smooth="yes"/>
      <point x="160" y="-7"/>
      <point x="102" y="6"/>
      <point x="52" y="36" type="curve"/>
      <point x="52" y="480" type="line"/>
      <point x="88" y="480" type="line"/>
      <point x="88" y="54" type="line"/>
      <point x="120" y="36"/>
      <point x="158" y="27"/>
      <point x="213" y="26" type="curve"/>
      <point x="213" y="480" type="line"/>
      <point x="249" y="480" type="line"/>
      <point x="249" y="26" type="line"/>
      <point x="304" y="27"/>
      <point x="341" y="36"/>
      <point x="374" y="54" type="curve"/>
      <point x="374" y="480" type="line"/>
      <point x="409" y="480" type="line"/>
    </contour>
  </outline>
</glyph>
<glyph name="x" format="1">
  <advance width="329"/>
  <unicode hex="0078"/>
  <outline>
    <contour>
      <point x="278" y="0" type="line"/>
      <point x="242" y="0" type="line"/>
      <point x="242" y="192" type="line"/>
      <point x="223" y="215"/>
      <point x="195" y="226"/>
      <point x="164" y="226" type="curve" smooth="yes"/>
      <point x="134" y="226"/>
      <point x="105" y="215"/>
      <point x="86" y="192" type="curve"/>
      <point x="86" y="0" type="line"/>
      <point x="50" y="0" type="line"/>
      <point x="50" y="202" type="line"/>
      <point x="72" y="224"/>
      <point x="96" y="236"/>
      <point x="120" y="243" type="curve"/>
      <point x="96" y="250"/>
      <point x="71" y="262"/>
      <point x="53" y="284" type="curve"/>
      <point x="53" y="480" type="line"/>
      <point x="89" y="480" type="line"/>
      <point x="89" y="292" type="line"/>
      <point x="108" y="269"/>
      <point x="136" y="260"/>
      <point x="164" y="260" type="curve" smooth="yes"/>
      <point x="192" y="260"/>
      <point x="221" y="269"/>
      <point x="240" y="292" type="curve"/>
      <point x="240" y="480" type="line"/>
      <point x="275" y="480" type="line"/>
      <point x="275" y="284" type="line"/>
      <point x="257" y="262"/>
      <point x="233" y="250"/>
      <point x="208" y="243" type="curve"/>
      <point x="232" y="236"/>
      <point x="256" y="224"/>
      <point x="278" y="202" type="curve"/>
    </contour>
  </outline>
</glyph>
<glyph name="y" format="1">
  <advance width="342"/>
  <unicode hex="0079"/>
  <outline>
    <contour>
      <point x="290" y="-144" type="line"/>
      <point x="261" y="-169"/>
      <point x="216" y="-182"/>
      <point x="171" y="-182" type="curve" smooth="yes"/>
      <point x="127" y="-182"/>
      <point x="82" y="-170"/>
      <point x="52" y="-145" type="curve"/>
      <point x="52" y="-57" type="line"/>
      <point x="88" y="-57" type="line"/>
      <point x="88" y="-127" type="line"/>
      <point x="110" y="-145"/>
      <point x="142" y="-150"/>
      <point x="171" y="-150" type="curve" smooth="yes"/>
      <point x="200" y="-150"/>
      <point x="232" y="-144"/>
      <point x="254" y="-126" type="curve"/>
      <point x="254" y="15" type="line"/>
      <point x="229" y="1"/>
      <point x="200" y="-7"/>
      <point x="166" y="-7" type="curve" smooth="yes"/>
      <point x="124" y="-7"/>
      <point x="82" y="5"/>
      <point x="52" y="32" type="curve"/>
      <point x="52" y="480" type="line"/>
      <point x="88" y="480" type="line"/>
      <point x="88" y="50" type="line"/>
      <point x="110" y="31"/>
      <point x="144" y="25"/>
      <point x="171" y="25" type="curve" smooth="yes"/>
      <point x="202" y="25"/>
      <point x="231" y="33"/>
      <point x="254" y="49" type="curve"/>
      <point x="254" y="480" type="line"/>
      <point x="290" y="480" type="line"/>
    </contour>
  </outline>
</glyph>
<glyph name="z" format="1">
  <advance width="287"/>
  <unicode hex="007A"/>
  <outline>
    <contour>
      <point x="253" y="0" type="line"/>
      <point x="34" y="0" type="line"/>
      <point x="34" y="27" type="line"/>
      <point x="212" y="448" type="line"/>
      <point x="46" y="448" type="line"/>
      <point x="46" y="480" type="line"/>
      <point x="251" y="480" type="line"/>
      <point x="251" y="452" type="line"/>
      <point x="75" y="32" type="line"/>
      <point x="253" y="32" type="line"/>
    </contour>
  </outline>
</glyph>
<glyph name="braceleft" format="1">
  <advance width="261"/>
  <unicode hex="007B"/>
  <outline>
    <contour>
      <point x="219" y="-8" type="line"/>
      <point x="167" y="-6"/>
      <point x="124" y="15"/>
      <point x="97" y="49" type="curve"/>
      <point x="97" y="321" type="line"/>
      <point x="81" y="342"/>
      <point x="56" y="353"/>
      <point x="27" y="353" type="curve"/>
      <point x="27" y="384" type="line"/>
      <point x="56" y="384"/>
      <point x="81" y="395"/>
      <point x="97" y="416" type="curve"/>
      <point x="97" y="669" type="line"/>
      <point x="124" y="702"/>
      <point x="167" y="724"/>
      <point x="219" y="726" type="curve"/>
      <point x="219" y="690" type="line"/>
      <point x="184" y="688"/>
      <point x="151" y="673"/>
      <point x="133" y="652" type="curve"/>
      <point x="133" y="408" type="line"/>
      <point x="118" y="387"/>
      <point x="99" y="375"/>
      <point x="73" y="369" type="curve"/>
      <point x="98" y="362"/>
      <point x="118" y="350"/>
      <point x="133" y="330" type="curve"/>
      <point x="133" y="66" type="line"/>
      <point x="151" y="45"/>
      <point x="184" y="30"/>
      <point x="219" y="28" type="curve"/>
    </contour>
  </outline>
</glyph>
<glyph name="braceright" format="1">
  <advance width="261"/>
  <unicode hex="007D"/>
  <outline>
    <contour>
      <point x="234" y="353" type="line"/>
      <point x="205" y="353"/>
      <point x="180" y="342"/>
      <point x="165" y="321" type="curve"/>
      <point x="165" y="49" type="line"/>
      <point x="138" y="15"/>
      <point x="94" y="-6"/>
      <point x="43" y="-8" type="curve"/>
      <point x="43" y="28" type="line"/>
      <point x="78" y="30"/>
      <point x="110" y="45"/>
      <point x="128" y="66" type="curve"/>
      <point x="128" y="330" type="line"/>
      <point x="143" y="350"/>
      <point x="163" y="362"/>
      <point x="188" y="369" type="curve"/>
      <point x="162" y="375"/>
      <point x="143" y="387"/>
      <point x="128" y="408" type="curve"/>
      <point x="128" y="652" type="line"/>
      <point x="110" y="673"/>
      <point x="77" y="688"/>
      <point x="43" y="690" type="curve"/>
      <point x="43" y="726" type="line"/>
      <point x="94" y="724"/>
      <point x="138" y="702"/>
      <point x="165" y="669" type="curve"/>
      <point x="165" y="416" type="line"/>
      <point x="180" y="395"/>
      <point x="206" y="384"/>
      <point x="234" y="384" type="curve"/>
    </contour>
  </outline>
</glyph>
<glyph name="asciitilde" format="1">
  <advance width="311"/>
  <unicode hex="007E"/>
  <outline>
    <contour>
      <point x="267" y="444" type="line"/>
      <point x="222" y="299" type="line"/>
      <point x="187" y="299" type="line"/>
      <point x="113" y="405" type="line"/>
      <point x="77" y="299" type="line"/>
      <point x="44" y="299" type="line"/>
      <point x="89" y="444" type="line"/>
      <point x="88" y="444"/>
      <point x="123" y="444"/>
      <point x="123" y="444" type="curve"/>
      <point x="198" y="337" type="line"/>
      <point x="233" y="444" type="line"/>
    </contour>
  </outline>
</glyph>
<glyph name="exclamdown" format="1">
  <advance width="156"/>
  <unicode hex="00A1"/>
  <outline>
    <contour>
      <point x="97" y="617" type="line"/>
      <point x="59" y="617" type="line"/>
      <point x="59" y="720" type="line"/>
      <point x="97" y="720" type="line"/>
    </contour>
    <contour>
      <point x="96" y="0" type="line"/>
      <point x="60" y="0" type="line"/>
      <point x="60" y="543" type="line"/>
      <point x="96" y="543" type="line"/>
    </contour>
  </outline>
</glyph>
<glyph name="cent" format="1">
  <advance width="322"/>
  <unicode hex="00A2"/>
  <outline>
    <contour>
      <point x="278" y="151" type="line"/>
      <point x="251" y="129"/>
      <point x="216" y="118"/>
      <point x="180" y="115" type="curve"/>
      <point x="180" y="0" type="line"/>
      <point x="146" y="0" type="line"/>
      <point x="146" y="115" type="line"/>
      <point x="111" y="118"/>
      <point x="76" y="128"/>
      <point x="48" y="151" type="curve"/>
      <point x="48" y="569" type="line"/>
      <point x="75" y="592"/>
      <point x="111" y="603"/>
      <point x="146" y="606" type="curve"/>
      <point x="146" y="720" type="line"/>
      <point x="180" y="720" type="line"/>
      <point x="180" y="606" type="line"/>
      <point x="215" y="603"/>
      <point x="250" y="592"/>
      <point x="278" y="569" type="curve"/>
      <point x="278" y="443" type="line"/>
      <point x="242" y="443" type="line"/>
      <point x="242" y="552" type="line"/>
      <point x="220" y="570"/>
      <point x="189" y="575"/>
      <point x="163" y="575" type="curve" smooth="yes"/>
      <point x="137" y="575"/>
      <point x="107" y="570"/>
      <point x="84" y="552" type="curve"/>
      <point x="84" y="169" type="line"/>
      <point x="106" y="151"/>
      <point x="136" y="145"/>
      <point x="163" y="145" type="curve" smooth="yes"/>
      <point x="189" y="145"/>
      <point x="220" y="150"/>
      <point x="242" y="169" type="curve"/>
      <point x="242" y="278" type="line"/>
      <point x="278" y="278" type="line"/>
    </contour>
  </outline>
</glyph>
<glyph name="sterling" format="1">
  <advance width="411"/>
  <unicode hex="00A3"/>
  <outline>
    <contour>
      <point x="369" y="0" type="line"/>
      <point x="42" y="0" type="line"/>
      <point x="42" y="33" type="line"/>
      <point x="83" y="33" type="line"/>
      <point x="83" y="349" type="line"/>
      <point x="42" y="349" type="line"/>
      <point x="42" y="384" type="line"/>
      <point x="83" y="384" type="line"/>
      <point x="83" y="681" type="line"/>
      <point x="125" y="714"/>
      <point x="177" y="727"/>
      <point x="226" y="727" type="curve" smooth="yes"/>
      <point x="273" y="727"/>
      <point x="326" y="714"/>
      <point x="368" y="681" type="curve"/>
      <point x="368" y="487" type="line"/>
      <point x="332" y="487" type="line"/>
      <point x="332" y="661" type="line"/>
      <point x="302" y="684"/>
      <point x="264" y="694"/>
      <point x="226" y="694" type="curve" smooth="yes"/>
      <point x="188" y="694"/>
      <point x="150" y="684"/>
      <point x="120" y="661" type="curve"/>
      <point x="120" y="384" type="line"/>
      <point x="273" y="384" type="line"/>
      <point x="273" y="349" type="line"/>
      <point x="120" y="349" type="line"/>
      <point x="120" y="33" type="line"/>
      <point x="369" y="33" type="line"/>
    </contour>
  </outline>
</glyph>
<glyph name="section" format="1">
  <advance width="421"/>
  <unicode hex="00A7"/>
  <outline>
    <contour>
      <point x="361" y="134" type="line"/>
      <point x="344" y="121"/>
      <point x="323" y="110"/>
      <point x="299" y="104" type="curve"/>
      <point x="352" y="53" type="line"/>
      <point x="352" y="-141" type="line"/>
      <point x="311" y="-171"/>
      <point x="259" y="-182"/>
      <point x="211" y="-182" type="curve" smooth="yes"/>
      <point x="162" y="-182"/>
      <point x="111" y="-171"/>
      <point x="69" y="-141" type="curve"/>
      <point x="69" y="37" type="line"/>
      <point x="106" y="37" type="line"/>
      <point x="106" y="-121" type="line"/>
      <point x="135" y="-141"/>
      <point x="172" y="-149"/>
      <point x="211" y="-149" type="curve" smooth="yes"/>
      <point x="249" y="-149"/>
      <point x="285" y="-141"/>
      <point x="316" y="-121" type="curve"/>
      <point x="316" y="42" type="line"/>
      <point x="260" y="96" type="line"/>
      <point x="243" y="92"/>
      <point x="226" y="90"/>
      <point x="207" y="90" type="curve" smooth="yes"/>
      <point x="149" y="91"/>
      <point x="98" y="106"/>
      <point x="60" y="134" type="curve"/>
      <point x="60" y="410" type="line"/>
      <point x="78" y="424"/>
      <point x="99" y="434"/>
      <point x="122" y="441" type="curve"/>
      <point x="69" y="492" type="line"/>
      <point x="69" y="686" type="line"/>
      <point x="111" y="716"/>
      <point x="161" y="727"/>
      <point x="211" y="727" type="curve" smooth="yes"/>
      <point x="259" y="727"/>
      <point x="310" y="716"/>
      <point x="352" y="686" type="curve"/>
      <point x="352" y="508" type="line"/>
      <point x="316" y="508" type="line"/>
      <point x="316" y="666" type="line"/>
      <point x="286" y="686"/>
      <point x="249" y="694"/>
      <point x="211" y="694" type="curve" smooth="yes"/>
      <point x="172" y="694"/>
      <point x="135" y="686"/>
      <point x="106" y="666" type="curve"/>
      <point x="106" y="503" type="line"/>
      <point x="161" y="448" type="line"/>
      <point x="178" y="452"/>
      <point x="196" y="454"/>
      <point x="214" y="454" type="curve" smooth="yes"/>
      <point x="272" y="454"/>
      <point x="323" y="438"/>
      <point x="361" y="410" type="curve"/>
    </contour>
    <contour>
      <point x="325" y="152" type="curve"/>
      <point x="325" y="393" type="line"/>
      <point x="294" y="413"/>
      <point x="256" y="423"/>
      <point x="211" y="423" type="curve" smooth="yes"/>
      <point x="165" y="423"/>
      <point x="126" y="413"/>
      <point x="96" y="393" type="curve"/>
      <point x="96" y="152" type="line"/>
      <point x="126" y="132"/>
      <point x="165" y="122"/>
      <point x="211" y="122" type="curve" smooth="yes"/>
      <point x="256" y="122"/>
      <point x="294" y="132"/>
    </contour>
  </outline>
</glyph>
<glyph name="dieresis" format="1">
  <advance width="307"/>
  <unicode hex="00A8"/>
  <outline>
    <contour>
      <point x="230" y="535" type="line"/>
      <point x="193" y="535" type="line"/>
      <point x="193" y="645" type="line"/>
      <point x="230" y="645" type="line"/>
    </contour>
    <contour>
      <point x="114" y="535" type="line"/>
      <point x="77" y="535" type="line"/>
      <point x="77" y="645" type="line"/>
      <point x="114" y="645" type="line"/>
    </contour>
  </outline>
</glyph>
<glyph name="copyright" format="1">
  <advance width="536"/>
  <unicode hex="00A9"/>
  <outline>
    <contour>
      <point x="476" y="60" type="line"/>
      <point x="421" y="14"/>
      <point x="346" y="-7"/>
      <point x="268" y="-7" type="curve" smooth="yes"/>
      <point x="190" y="-7"/>
      <point x="114" y="14"/>
      <point x="60" y="60" type="curve"/>
      <point x="60" y="660" type="line"/>
      <point x="114" y="706"/>
      <point x="190" y="727"/>
      <point x="268" y="727" type="curve" smooth="yes"/>
      <point x="346" y="727"/>
      <point x="421" y="706"/>
      <point x="476" y="660" type="curve"/>
    </contour>
    <contour>
      <point x="443" y="75" type="curve"/>
      <point x="443" y="645" type="line"/>
      <point x="396" y="680"/>
      <point x="331" y="697"/>
      <point x="268" y="697" type="curve" smooth="yes"/>
      <point x="206" y="697"/>
      <point x="140" y="681"/>
      <point x="93" y="645" type="curve"/>
      <point x="93" y="75" type="line"/>
      <point x="140" y="39"/>
      <point x="206" y="23"/>
      <point x="268" y="23" type="curve" smooth="yes"/>
      <point x="331" y="23"/>
      <point x="396" y="40"/>
    </contour>
    <contour>
      <point x="361" y="135" type="line"/>
      <point x="335" y="114"/>
      <point x="302" y="106"/>
      <point x="268" y="106" type="curve" smooth="yes"/>
      <point x="233" y="106"/>
      <point x="201" y="114"/>
      <point x="173" y="135" type="curve"/>
      <point x="173" y="586" type="line"/>
      <point x="200" y="607"/>
      <point x="233" y="615"/>
      <point x="268" y="615" type="curve" smooth="yes"/>
      <point x="301" y="615"/>
      <point x="335" y="608"/>
      <point x="361" y="586" type="curve"/>
      <point x="361" y="441" type="line"/>
      <point x="331" y="441" type="line"/>
      <point x="331" y="571" type="line"/>
      <point x="314" y="582"/>
      <point x="292" y="588"/>
      <point x="268" y="588" type="curve" smooth="yes"/>
      <point x="243" y="588"/>
      <point x="221" y="582"/>
      <point x="204" y="571" type="curve"/>
      <point x="204" y="151" type="line"/>
      <point x="221" y="139"/>
      <point x="243" y="134"/>
      <point x="268" y="134" type="curve" smooth="yes"/>
      <point x="292" y="134"/>
      <point x="314" y="139"/>
      <point x="331" y="151" type="curve"/>
      <point x="331" y="281" type="line"/>
      <point x="361" y="281" type="line"/>
    </contour>
  </outline>
</glyph>
<glyph name="ordfeminine" format="1">
  <advance width="315"/>
  <unicode hex="00AA"/>
  <outline>
    <contour>
      <point x="256" y="332" type="line"/>
      <point x="228" y="311"/>
      <point x="195" y="300"/>
      <point x="157" y="300" type="curve" smooth="yes"/>
      <point x="120" y="300"/>
      <point x="86" y="310"/>
      <point x="58" y="332" type="curve"/>
      <point x="58" y="522" type="line"/>
      <point x="84" y="541"/>
      <point x="117" y="551"/>
      <point x="152" y="551" type="curve" smooth="yes"/>
      <point x="180" y="551"/>
      <point x="202" y="546"/>
      <point x="223" y="536" type="curve"/>
      <point x="223" y="677" type="line"/>
      <point x="205" y="691"/>
      <point x="180" y="696"/>
      <point x="158" y="696" type="curve" smooth="yes"/>
      <point x="135" y="696"/>
      <point x="112" y="692"/>
      <point x="93" y="678" type="curve"/>
      <point x="93" y="603" type="line"/>
      <point x="59" y="603" type="line"/>
      <point x="59" y="694" type="line"/>
      <point x="87" y="717"/>
      <point x="123" y="725"/>
      <point x="158" y="725" type="curve" smooth="yes"/>
      <point x="192" y="725"/>
      <point x="228" y="716"/>
      <point x="256" y="693" type="curve"/>
    </contour>
    <contour>
      <point x="223" y="349" type="curve"/>
      <point x="223" y="507" type="line"/>
      <point x="205" y="516"/>
      <point x="183" y="522"/>
      <point x="157" y="522" type="curve" smooth="yes"/>
      <point x="134" y="522"/>
      <point x="110" y="519"/>
      <point x="91" y="505" type="curve"/>
      <point x="91" y="349" type="line"/>
      <point x="109" y="335"/>
      <point x="134" y="330"/>
      <point x="157" y="330" type="curve" smooth="yes"/>
      <point x="180" y="330"/>
      <point x="205" y="335"/>
    </contour>
  </outline>
</glyph>
<glyph name="guillemotleft" format="1">
  <advance width="365"/>
  <unicode hex="00AB"/>
  <outline>
    <contour>
      <point x="327" y="27" type="line"/>
      <point x="183" y="221" type="line"/>
      <point x="183" y="259" type="line"/>
      <point x="327" y="453" type="line"/>
      <point x="327" y="396" type="line"/>
      <point x="211" y="240" type="line"/>
      <point x="327" y="85" type="line"/>
    </contour>
    <contour>
      <point x="172" y="27" type="line"/>
      <point x="28" y="221" type="line"/>
      <point x="28" y="259" type="line"/>
      <point x="172" y="453" type="line"/>
      <point x="172" y="396" type="line"/>
      <point x="56" y="240" type="line"/>
      <point x="172" y="85" type="line"/>
    </contour>
  </outline>
</glyph>
<glyph name="macron" format="1">
  <advance width="307"/>
  <unicode hex="00AF"/>
  <unicode hex="02C9"/>
  <outline>
    <contour>
      <point x="248" y="537" type="line"/>
      <point x="59" y="537" type="line"/>
      <point x="59" y="571" type="line"/>
      <point x="248" y="571" type="line"/>
    </contour>
  </outline>
</glyph>
<glyph name="degree" format="1">
  <advance width="320"/>
  <unicode hex="00B0"/>
  <outline>
    <contour>
      <point x="268" y="376" type="line"/>
      <point x="239" y="349"/>
      <point x="202" y="337"/>
      <point x="160" y="337" type="curve" smooth="yes"/>
      <point x="119" y="337"/>
      <point x="82" y="349"/>
      <point x="52" y="376" type="curve"/>
      <point x="52" y="687" type="line"/>
      <point x="82" y="714"/>
      <point x="119" y="727"/>
      <point x="160" y="727" type="curve" smooth="yes"/>
      <point x="202" y="727"/>
      <point x="239" y="714"/>
      <point x="268" y="687" type="curve"/>
    </contour>
    <contour>
      <point x="234" y="392" type="curve"/>
      <point x="234" y="672" type="line"/>
      <point x="212" y="690"/>
      <point x="187" y="697"/>
      <point x="160" y="697" type="curve" smooth="yes"/>
      <point x="134" y="697"/>
      <point x="109" y="690"/>
      <point x="86" y="672" type="curve"/>
      <point x="86" y="392" type="line"/>
      <point x="109" y="373"/>
      <point x="134" y="367"/>
      <point x="160" y="367" type="curve" smooth="yes"/>
      <point x="187" y="367"/>
      <point x="212" y="373"/>
    </contour>
  </outline>
</glyph>
<glyph name="acute" format="1">
  <advance width="307"/>
  <unicode hex="00B4"/>
  <outline>
    <contour>
      <point x="209" y="663" type="line"/>
      <point x="138" y="535" type="line"/>
      <point x="98" y="535" type="line"/>
      <point x="166" y="663" type="line"/>
    </contour>
  </outline>
</glyph>
<glyph name="paragraph" format="1">
  <advance width="451"/>
  <unicode hex="00B6"/>
  <outline>
    <contour>
      <point x="383" y="0" type="line"/>
      <point x="349" y="0" type="line"/>
      <point x="349" y="689" type="line"/>
      <point x="283" y="689" type="line"/>
      <point x="283" y="0" type="line"/>
      <point x="248" y="0" type="line"/>
      <point x="248" y="317" type="line"/>
      <point x="200" y="317" type="line" smooth="yes"/>
      <point x="129" y="317"/>
      <point x="83" y="336"/>
      <point x="43" y="383" type="curve"/>
      <point x="43" y="654" type="line"/>
      <point x="83" y="702"/>
      <point x="129" y="720"/>
      <point x="200" y="720" type="curve" smooth="yes"/>
      <point x="383" y="720" type="line"/>
    </contour>
    <contour>
      <point x="248" y="349" type="line"/>
      <point x="248" y="689" type="line"/>
      <point x="200" y="689" type="line" smooth="yes"/>
      <point x="148" y="689"/>
      <point x="109" y="676"/>
      <point x="79" y="640" type="curve"/>
      <point x="79" y="397" type="line"/>
      <point x="109" y="361"/>
      <point x="148" y="349"/>
      <point x="200" y="349" type="curve" smooth="yes"/>
    </contour>
  </outline>
</glyph>
<glyph name="periodcentered" format="1">
  <advance width="143"/>
  <unicode hex="00B7"/>
  <unicode hex="2219"/>
  <outline>
    <contour>
      <point x="91" y="245" type="line"/>
      <point x="52" y="245" type="line"/>
      <point x="52" y="347" type="line"/>
      <point x="91" y="347" type="line"/>
    </contour>
  </outline>
</glyph>
<glyph name="cedilla" format="1">
  <advance width="307"/>
  <unicode hex="00B8"/>
  <outline>
    <contour>
      <point x="171" y="-71" type="line"/>
      <point x="151" y="-95"/>
      <point x="123" y="-103"/>
      <point x="93" y="-103" type="curve" smooth="yes"/>
      <point x="86" y="-103" type="line"/>
      <point x="86" y="-71" type="line"/>
      <point x="91" y="-71" type="line" smooth="yes"/>
      <point x="110" y="-71"/>
      <point x="125" y="-67"/>
      <point x="138" y="-54" type="curve"/>
      <point x="138" y="6" type="line"/>
      <point x="171" y="6" type="line"/>
    </contour>
  </outline>
</glyph>
<glyph name="ordmasculine" format="1">
  <advance width="322"/>
  <unicode hex="00BA"/>
  <outline>
    <contour>
      <point x="265" y="336" type="line"/>
      <point x="239" y="313"/>
      <point x="201" y="300"/>
      <point x="161" y="300" type="curve" smooth="yes"/>
      <point x="122" y="300"/>
      <point x="83" y="313"/>
      <point x="57" y="336" type="curve"/>
      <point x="57" y="690" type="line"/>
      <point x="83" y="713"/>
      <point x="122" y="725"/>
      <point x="161" y="725" type="curve" smooth="yes"/>
      <point x="200" y="725"/>
      <point x="238" y="714"/>
      <point x="265" y="690" type="curve"/>
    </contour>
    <contour>
      <point x="232" y="352" type="curve"/>
      <point x="232" y="674" type="line"/>
      <point x="214" y="689"/>
      <point x="185" y="696"/>
      <point x="161" y="696" type="curve" smooth="yes"/>
      <point x="138" y="696"/>
      <point x="109" y="690"/>
      <point x="91" y="675" type="curve"/>
      <point x="91" y="352" type="line"/>
      <point x="109" y="337"/>
      <point x="137" y="330"/>
      <point x="161" y="330" type="curve" smooth="yes"/>
      <point x="185" y="330"/>
      <point x="213" y="337"/>
    </contour>
  </outline>
</glyph>
<glyph name="guillemotright" format="1">
  <advance width="365"/>
  <unicode hex="00BB"/>
  <outline>
    <contour>
      <point x="337" y="221" type="line"/>
      <point x="193" y="27" type="line"/>
      <point x="193" y="85" type="line"/>
      <point x="309" y="240" type="line"/>
      <point x="193" y="396" type="line"/>
      <point x="193" y="453" type="line"/>
      <point x="337" y="259" type="line"/>
    </contour>
    <contour>
      <point x="182" y="221" type="line"/>
      <point x="37" y="27" type="line"/>
      <point x="37" y="85" type="line"/>
      <point x="154" y="240" type="line"/>
      <point x="37" y="396" type="line"/>
      <point x="37" y="453" type="line"/>
      <point x="182" y="259" type="line"/>
    </contour>
  </outline>
</glyph>
<glyph name="questiondown" format="1">
  <advance width="363"/>
  <unicode hex="00BF"/>
  <outline>
    <contour>
      <point x="199" y="617" type="line"/>
      <point x="162" y="617" type="line"/>
      <point x="162" y="720" type="line"/>
      <point x="199" y="720" type="line"/>
    </contour>
    <contour>
      <point x="324" y="41" type="line"/>
      <point x="281" y="6"/>
      <point x="230" y="-7"/>
      <point x="182" y="-7" type="curve" smooth="yes"/>
      <point x="133" y="-7"/>
      <point x="82" y="6"/>
      <point x="40" y="41" type="curve"/>
      <point x="40" y="254" type="line"/>
      <point x="162" y="417" type="line"/>
      <point x="162" y="545" type="line"/>
      <point x="199" y="545" type="line"/>
      <point x="199" y="413" type="line"/>
      <point x="77" y="250" type="line"/>
      <point x="77" y="60" type="line"/>
      <point x="107" y="36"/>
      <point x="144" y="26"/>
      <point x="182" y="26" type="curve" smooth="yes"/>
      <point x="221" y="26"/>
      <point x="258" y="36"/>
      <point x="287" y="60" type="curve"/>
      <point x="287" y="233" type="line"/>
      <point x="324" y="233" type="line"/>
    </contour>
  </outline>
</glyph>
<glyph name="Aring" format="1">
  <advance width="436"/>
  <unicode hex="00C5"/>
  <outline>
    <contour>
      <point x="372" y="0" type="line"/>
      <point x="335" y="0" type="line"/>
      <point x="335" y="327" type="line"/>
      <point x="101" y="327" type="line"/>
      <point x="101" y="0" type="line"/>
      <point x="64" y="0" type="line"/>
      <point x="64" y="673" type="line"/>
      <point x="108" y="710"/>
      <point x="163" y="727"/>
      <point x="218" y="727" type="curve" smooth="yes"/>
      <point x="273" y="727"/>
      <point x="329" y="710"/>
      <point x="372" y="673" type="curve"/>
    </contour>
    <contour>
      <point x="335" y="362" type="line"/>
      <point x="335" y="655" type="line"/>
      <point x="300" y="682"/>
      <point x="261" y="694"/>
      <point x="218" y="694" type="curve" smooth="yes"/>
      <point x="175" y="694"/>
      <point x="136" y="682"/>
      <point x="101" y="655" type="curve"/>
      <point x="101" y="362" type="line"/>
    </contour>
    <contour>
      <point x="306" y="789" type="line"/>
      <point x="283" y="771"/>
      <point x="250" y="762"/>
      <point x="219" y="762" type="curve" smooth="yes"/>
      <point x="187" y="762"/>
      <point x="154" y="771"/>
      <point x="131" y="789" type="curve"/>
      <point x="131" y="867" type="line"/>
      <point x="154" y="885"/>
      <point x="187" y="894"/>
      <point x="219" y="894" type="curve" smooth="yes"/>
      <point x="250" y="894"/>
      <point x="283" y="885"/>
      <point x="306" y="867" type="curve"/>
    </contour>
    <contour>
      <point x="277" y="801" type="curve"/>
      <point x="277" y="855" type="line"/>
      <point x="261" y="866"/>
      <point x="238" y="870"/>
      <point x="219" y="870" type="curve" smooth="yes"/>
      <point x="199" y="870"/>
      <point x="176" y="866"/>
      <point x="160" y="855" type="curve"/>
      <point x="160" y="801" type="line"/>
      <point x="176" y="790"/>
      <point x="199" y="786"/>
      <point x="219" y="786" type="curve" smooth="yes"/>
      <point x="238" y="786"/>
      <point x="261" y="790"/>
    </contour>
  </outline>
</glyph>
<glyph name="AE" format="1">
  <advance width="690"/>
  <unicode hex="00C6"/>
  <outline>
    <contour>
      <point x="630" y="36" type="line"/>
      <point x="582" y="6"/>
      <point x="531" y="-7"/>
      <point x="477" y="-7" type="curve" smooth="yes"/>
      <point x="422" y="-7"/>
      <point x="371" y="8"/>
      <point x="326" y="38" type="curve"/>
      <point x="326" y="327" type="line"/>
      <point x="101" y="327" type="line"/>
      <point x="101" y="0" type="line"/>
      <point x="64" y="0" type="line"/>
      <point x="64" y="678" type="line"/>
      <point x="103" y="711"/>
      <point x="158" y="727"/>
      <point x="214" y="727" type="curve" smooth="yes"/>
      <point x="260" y="727"/>
      <point x="306" y="716"/>
      <point x="342" y="693" type="curve"/>
      <point x="383" y="715"/>
      <point x="428" y="727"/>
      <point x="477" y="727" type="curve" smooth="yes"/>
      <point x="531" y="727"/>
      <point x="581" y="715"/>
      <point x="630" y="684" type="curve"/>
      <point x="630" y="487" type="line"/>
      <point x="593" y="487" type="line"/>
      <point x="593" y="664" type="line"/>
      <point x="556" y="685"/>
      <point x="521" y="694"/>
      <point x="477" y="694" type="curve" smooth="yes"/>
      <point x="433" y="694"/>
      <point x="398" y="684"/>
      <point x="363" y="663" type="curve"/>
      <point x="363" y="388" type="line"/>
      <point x="541" y="388" type="line"/>
      <point x="541" y="354" type="line"/>
      <point x="363" y="354" type="line"/>
      <point x="363" y="57" type="line"/>
      <point x="398" y="36"/>
      <point x="433" y="26"/>
      <point x="477" y="26" type="curve" smooth="yes"/>
      <point x="520" y="26"/>
      <point x="556" y="35"/>
      <point x="593" y="56" type="curve"/>
      <point x="593" y="233" type="line"/>
      <point x="630" y="233" type="line"/>
    </contour>
    <contour>
      <point x="326" y="362" type="line"/>
      <point x="326" y="660" type="line"/>
      <point x="296" y="684"/>
      <point x="255" y="694"/>
      <point x="214" y="694" type="curve" smooth="yes"/>
      <point x="172" y="694"/>
      <point x="132" y="684"/>
      <point x="101" y="660" type="curve"/>
      <point x="101" y="362" type="line"/>
    </contour>
  </outline>
</glyph>
<glyph name="Ccedilla" format="1">
  <advance width="439"/>
  <unicode hex="00C7"/>
  <outline>
    <contour>
      <point x="379" y="46" type="line"/>
      <point x="336" y="13"/>
      <point x="286" y="-2"/>
      <point x="237" y="-6" type="curve"/>
      <point x="237" y="-71" type="line"/>
      <point x="217" y="-95"/>
      <point x="188" y="-103"/>
      <point x="158" y="-103" type="curve" smooth="yes"/>
      <point x="151" y="-103" type="line"/>
      <point x="151" y="-71" type="line"/>
      <point x="156" y="-71" type="line" smooth="yes"/>
      <point x="175" y="-71"/>
      <point x="190" y="-67"/>
      <point x="203" y="-54" type="curve"/>
      <point x="203" y="-6" type="line"/>
      <point x="154" y="-3"/>
      <point x="104" y="12"/>
      <point x="60" y="46" type="curve"/>
      <point x="60" y="674" type="line"/>
      <point x="108" y="712"/>
      <point x="165" y="727"/>
      <point x="220" y="727" type="curve" smooth="yes"/>
      <point x="273" y="727"/>
      <point x="331" y="712"/>
      <point x="379" y="674" type="curve"/>
      <point x="379" y="487" type="line"/>
      <point x="342" y="487" type="line"/>
      <point x="342" y="655" type="line"/>
      <point x="305" y="682"/>
      <point x="263" y="694"/>
      <point x="220" y="694" type="curve" smooth="yes"/>
      <point x="177" y="694"/>
      <point x="134" y="683"/>
      <point x="97" y="655" type="curve"/>
      <point x="97" y="65" type="line"/>
      <point x="134" y="37"/>
      <point x="176" y="26"/>
      <point x="220" y="26" type="curve" smooth="yes"/>
      <point x="263" y="26"/>
      <point x="305" y="37"/>
      <point x="342" y="65" type="curve"/>
      <point x="342" y="233" type="line"/>
      <point x="379" y="233" type="line"/>
    </contour>
  </outline>
</glyph>
<glyph name="Eth" format="1">
  <advance width="455"/>
  <unicode hex="00D0"/>
  <outline>
    <contour>
      <point x="395" y="77" type="line"/>
      <point x="355" y="29"/>
      <point x="297" y="0"/>
      <point x="207" y="0" type="curve" smooth="yes"/>
      <point x="78" y="0" type="line"/>
      <point x="78" y="354" type="line"/>
      <point x="31" y="354" type="line"/>
      <point x="31" y="388" type="line"/>
      <point x="78" y="388" type="line"/>
      <point x="78" y="720" type="line"/>
      <point x="207" y="720" type="line" smooth="yes"/>
      <point x="296" y="720"/>
      <point x="354" y="691"/>
      <point x="395" y="643" type="curve"/>
    </contour>
    <contour>
      <point x="358" y="93" type="curve"/>
      <point x="358" y="628" type="line"/>
      <point x="327" y="664"/>
      <point x="278" y="687"/>
      <point x="206" y="687" type="curve" smooth="yes"/>
      <point x="115" y="687" type="line"/>
      <point x="115" y="388" type="line"/>
      <point x="183" y="388" type="line"/>
      <point x="183" y="354" type="line"/>
      <point x="115" y="354" type="line"/>
      <point x="115" y="33" type="line"/>
      <point x="206" y="33" type="line" smooth="yes"/>
      <point x="278" y="33"/>
      <point x="327" y="56"/>
    </contour>
  </outline>
</glyph>
<glyph name="Oslash" format="1">
  <advance width="456"/>
  <unicode hex="00D8"/>
  <outline>
    <contour>
      <point x="396" y="54" type="line"/>
      <point x="348" y="12"/>
      <point x="292" y="-7"/>
      <point x="228" y="-7" type="curve" smooth="yes"/>
      <point x="202" y="-7"/>
      <point x="177" y="-4"/>
      <point x="154" y="3" type="curve"/>
      <point x="135" y="-70" type="line"/>
      <point x="100" y="-70" type="line"/>
      <point x="122" y="14" type="line"/>
      <point x="100" y="24"/>
      <point x="80" y="37"/>
      <point x="60" y="54" type="curve"/>
      <point x="60" y="666" type="line"/>
      <point x="108" y="708"/>
      <point x="164" y="727"/>
      <point x="228" y="727" type="curve" smooth="yes"/>
      <point x="254" y="727"/>
      <point x="279" y="724"/>
      <point x="303" y="717" type="curve"/>
      <point x="322" y="790" type="line"/>
      <point x="356" y="790" type="line"/>
      <point x="334" y="706" type="line"/>
      <point x="356" y="696"/>
      <point x="377" y="683"/>
      <point x="396" y="666" type="curve"/>
    </contour>
    <contour>
      <point x="359" y="72" type="curve"/>
      <point x="359" y="648" type="line"/>
      <point x="348" y="657"/>
      <point x="337" y="665"/>
      <point x="325" y="671" type="curve"/>
      <point x="162" y="36" type="line"/>
      <point x="183" y="29"/>
      <point x="205" y="26"/>
      <point x="228" y="26" type="curve" smooth="yes"/>
      <point x="279" y="26"/>
      <point x="322" y="41"/>
    </contour>
    <contour>
      <point x="295" y="684" type="line"/>
      <point x="274" y="691"/>
      <point x="252" y="694"/>
      <point x="228" y="694" type="curve" smooth="yes"/>
      <point x="177" y="694"/>
      <point x="134" y="679"/>
      <point x="97" y="648" type="curve"/>
      <point x="97" y="72" type="line"/>
      <point x="108" y="63"/>
      <point x="119" y="55"/>
      <point x="131" y="49" type="curve"/>
    </contour>
  </outline>
</glyph>
<glyph name="Thorn" format="1">
  <advance width="393"/>
  <unicode hex="00DE"/>
  <outline>
    <contour>
      <point x="350" y="223" type="line"/>
      <point x="310" y="175"/>
      <point x="263" y="156"/>
      <point x="193" y="156" type="curve" smooth="yes"/>
      <point x="105" y="156" type="line"/>
      <point x="105" y="0" type="line"/>
      <point x="68" y="0" type="line"/>
      <point x="68" y="720" type="line"/>
      <point x="105" y="720" type="line"/>
      <point x="105" y="583" type="line"/>
      <point x="193" y="583" type="line" smooth="yes"/>
      <point x="263" y="583"/>
      <point x="310" y="565"/>
      <point x="350" y="517" type="curve"/>
    </contour>
    <contour>
      <point x="313" y="239" type="curve"/>
      <point x="313" y="501" type="line"/>
      <point x="283" y="537"/>
      <point x="244" y="549"/>
      <point x="192" y="549" type="curve" smooth="yes"/>
      <point x="105" y="549" type="line"/>
      <point x="105" y="190" type="line"/>
      <point x="192" y="190" type="line" smooth="yes"/>
      <point x="244" y="190"/>
      <point x="282" y="202"/>
    </contour>
  </outline>
</glyph>
<glyph name="germandbls" format="1">
  <advance width="317"/>
  <unicode hex="00DF"/>
  <outline>
    <contour>
      <point x="272" y="42" type="line"/>
      <point x="244" y="10"/>
      <point x="197" y="-2"/>
      <point x="149" y="-2" type="curve"/>
      <point x="149" y="30" type="line"/>
      <point x="179" y="30"/>
      <point x="217" y="37"/>
      <point x="236" y="58" type="curve"/>
      <point x="236" y="310" type="line"/>
      <point x="218" y="338"/>
      <point x="187" y="356"/>
      <point x="144" y="356" type="curve" smooth="yes"/>
      <point x="89" y="356" type="line"/>
      <point x="89" y="0" type="line"/>
      <point x="53" y="0" type="line"/>
      <point x="53" y="692" type="line"/>
      <point x="82" y="714"/>
      <point x="117" y="726"/>
      <point x="161" y="726" type="curve" smooth="yes"/>
      <point x="203" y="726"/>
      <point x="238" y="714"/>
      <point x="267" y="692" type="curve"/>
      <point x="267" y="419" type="line"/>
      <point x="250" y="396"/>
      <point x="227" y="379"/>
      <point x="196" y="371" type="curve"/>
      <point x="228" y="363"/>
      <point x="252" y="348"/>
      <point x="272" y="322" type="curve"/>
    </contour>
    <contour>
      <point x="231" y="429" type="curve"/>
      <point x="231" y="675" type="line"/>
      <point x="212" y="689"/>
      <point x="188" y="694"/>
      <point x="161" y="694" type="curve" smooth="yes"/>
      <point x="133" y="694"/>
      <point x="109" y="689"/>
      <point x="89" y="675" type="curve"/>
      <point x="89" y="387" type="line"/>
      <point x="144" y="387" type="line" smooth="yes"/>
      <point x="186" y="387"/>
      <point x="213" y="403"/>
    </contour>
  </outline>
</glyph>
<glyph name="ae" format="1">
  <advance width="498"/>
  <unicode hex="00E6"/>
  <outline>
    <contour>
      <point x="451" y="28" type="line"/>
      <point x="419" y="3"/>
      <point x="382" y="-7"/>
      <point x="341" y="-7" type="curve" smooth="yes"/>
      <point x="308" y="-7"/>
      <point x="277" y="0"/>
      <point x="249" y="16" type="curve"/>
      <point x="222" y="1"/>
      <point x="192" y="-7"/>
      <point x="156" y="-7" type="curve" smooth="yes"/>
      <point x="113" y="-7"/>
      <point x="78" y="2"/>
      <point x="46" y="26" type="curve"/>
      <point x="46" y="258" type="line"/>
      <point x="75" y="280"/>
      <point x="110" y="291"/>
      <point x="151" y="291" type="curve" smooth="yes"/>
      <point x="183" y="291"/>
      <point x="207" y="284"/>
      <point x="231" y="273" type="curve"/>
      <point x="231" y="436" type="line"/>
      <point x="209" y="451"/>
      <point x="183" y="456"/>
      <point x="157" y="456" type="curve" smooth="yes"/>
      <point x="130" y="456"/>
      <point x="106" y="452"/>
      <point x="83" y="437" type="curve"/>
      <point x="83" y="350" type="line"/>
      <point x="47" y="350" type="line"/>
      <point x="47" y="455" type="line"/>
      <point x="79" y="478"/>
      <point x="116" y="487"/>
      <point x="157" y="487" type="curve" smooth="yes"/>
      <point x="190" y="487"/>
      <point x="222" y="479"/>
      <point x="250" y="463" type="curve"/>
      <point x="276" y="479"/>
      <point x="307" y="487"/>
      <point x="341" y="487" type="curve" smooth="yes"/>
      <point x="382" y="487"/>
      <point x="420" y="476"/>
      <point x="450" y="451" type="curve"/>
      <point x="450" y="232" type="line"/>
      <point x="266" y="232" type="line"/>
      <point x="266" y="45" type="line"/>
      <point x="288" y="29"/>
      <point x="316" y="25"/>
      <point x="341" y="25" type="curve" smooth="yes"/>
      <point x="366" y="25"/>
      <point x="392" y="29"/>
      <point x="415" y="45" type="curve"/>
      <point x="415" y="155" type="line"/>
      <point x="451" y="155" type="line"/>
    </contour>
    <contour>
      <point x="415" y="262" type="line"/>
      <point x="415" y="434" type="line"/>
      <point x="393" y="449"/>
      <point x="367" y="455"/>
      <point x="341" y="455" type="curve" smooth="yes"/>
      <point x="315" y="455"/>
      <point x="288" y="450"/>
      <point x="266" y="434" type="curve"/>
      <point x="266" y="262" type="line"/>
    </contour>
    <contour>
      <point x="231" y="44" type="curve"/>
      <point x="231" y="241" type="line"/>
      <point x="209" y="253"/>
      <point x="186" y="259"/>
      <point x="156" y="260" type="curve" smooth="yes"/>
      <point x="130" y="260"/>
      <point x="104" y="255"/>
      <point x="81" y="239" type="curve"/>
      <point x="81" y="44" type="line"/>
      <point x="103" y="29"/>
      <point x="128" y="24"/>
      <point x="156" y="24" type="curve" smooth="yes"/>
      <point x="184" y="24"/>
      <point x="209" y="29"/>
    </contour>
  </outline>
</glyph>
<glyph name="ccedilla" format="1">
  <advance width="322"/>
  <unicode hex="00E7"/>
  <outline>
    <contour>
      <point x="278" y="31" type="line"/>
      <point x="251" y="8"/>
      <point x="215" y="-3"/>
      <point x="180" y="-6" type="curve"/>
      <point x="180" y="-71" type="line"/>
      <point x="160" y="-95"/>
      <point x="132" y="-103"/>
      <point x="102" y="-103" type="curve" smooth="yes"/>
      <point x="95" y="-103" type="line"/>
      <point x="95" y="-71" type="line"/>
      <point x="100" y="-71" type="line" smooth="yes"/>
      <point x="119" y="-71"/>
      <point x="134" y="-67"/>
      <point x="146" y="-54" type="curve"/>
      <point x="146" y="-6" type="line"/>
      <point x="112" y="-3"/>
      <point x="76" y="8"/>
      <point x="48" y="31" type="curve"/>
      <point x="48" y="449" type="line"/>
      <point x="80" y="476"/>
      <point x="122" y="487"/>
      <point x="163" y="487" type="curve" smooth="yes"/>
      <point x="203" y="487"/>
      <point x="246" y="476"/>
      <point x="278" y="449" type="curve"/>
      <point x="278" y="323" type="line"/>
      <point x="242" y="323" type="line"/>
      <point x="242" y="431" type="line"/>
      <point x="220" y="449"/>
      <point x="189" y="455"/>
      <point x="163" y="455" type="curve" smooth="yes"/>
      <point x="137" y="455"/>
      <point x="107" y="450"/>
      <point x="84" y="431" type="curve"/>
      <point x="84" y="49" type="line"/>
      <point x="106" y="31"/>
      <point x="136" y="25"/>
      <point x="163" y="25" type="curve" smooth="yes"/>
      <point x="189" y="25"/>
      <point x="220" y="30"/>
      <point x="242" y="49" type="curve"/>
      <point x="242" y="158" type="line"/>
      <point x="278" y="158" type="line"/>
    </contour>
  </outline>
</glyph>
<glyph name="eth" format="1">
  <advance width="340"/>
  <unicode hex="00F0"/>
  <outline>
    <contour>
      <point x="323" y="598" type="line"/>
      <point x="288" y="598" type="line"/>
      <point x="288" y="34" type="line"/>
      <point x="259" y="8"/>
      <point x="214" y="-7"/>
      <point x="168" y="-7" type="curve" smooth="yes"/>
      <point x="123" y="-7"/>
      <point x="78" y="7"/>
      <point x="48" y="34" type="curve"/>
      <point x="48" y="446" type="line"/>
      <point x="78" y="474"/>
      <point x="121" y="487"/>
      <point x="164" y="487" type="curve" smooth="yes"/>
      <point x="197" y="487"/>
      <point x="228" y="478"/>
      <point x="252" y="465" type="curve"/>
      <point x="252" y="598" type="line"/>
      <point x="165" y="598" type="line"/>
      <point x="165" y="630" type="line"/>
      <point x="252" y="630" type="line"/>
      <point x="252" y="720" type="line"/>
      <point x="288" y="720" type="line"/>
      <point x="288" y="630" type="line"/>
      <point x="323" y="630" type="line"/>
    </contour>
    <contour>
      <point x="252" y="52" type="curve"/>
      <point x="252" y="430" type="line"/>
      <point x="230" y="446"/>
      <point x="201" y="455"/>
      <point x="168" y="455" type="curve" smooth="yes"/>
      <point x="140" y="455"/>
      <point x="106" y="447"/>
      <point x="84" y="429" type="curve"/>
      <point x="84" y="52" type="line"/>
      <point x="105" y="33"/>
      <point x="139" y="25"/>
      <point x="168" y="25" type="curve" smooth="yes"/>
      <point x="196" y="25"/>
      <point x="231" y="33"/>
    </contour>
  </outline>
</glyph>
<glyph name="oslash" format="1">
  <advance width="336"/>
  <unicode hex="00F8"/>
  <outline>
    <contour>
      <point x="288" y="34" type="line"/>
      <point x="259" y="8"/>
      <point x="214" y="-7"/>
      <point x="168" y="-7" type="curve" smooth="yes"/>
      <point x="154" y="-7"/>
      <point x="140" y="-6"/>
      <point x="127" y="-3" type="curve"/>
      <point x="111" y="-70" type="line"/>
      <point x="78" y="-70" type="line"/>
      <point x="96" y="6" type="line"/>
      <point x="78" y="12"/>
      <point x="62" y="22"/>
      <point x="48" y="34" type="curve"/>
      <point x="48" y="446" type="line"/>
      <point x="77" y="473"/>
      <point x="122" y="487"/>
      <point x="168" y="487" type="curve" smooth="yes"/>
      <point x="182" y="487"/>
      <point x="196" y="486"/>
      <point x="210" y="483" type="curve"/>
      <point x="226" y="550" type="line"/>
      <point x="258" y="550" type="line"/>
      <point x="240" y="474" type="line"/>
      <point x="258" y="468"/>
      <point x="274" y="458"/>
      <point x="288" y="446" type="curve"/>
    </contour>
    <contour>
      <point x="252" y="52" type="curve"/>
      <point x="252" y="429" type="line"/>
      <point x="246" y="434"/>
      <point x="240" y="438"/>
      <point x="232" y="441" type="curve"/>
      <point x="134" y="28" type="line"/>
      <point x="146" y="26"/>
      <point x="157" y="25"/>
      <point x="168" y="25" type="curve" smooth="yes"/>
      <point x="196" y="25"/>
      <point x="231" y="33"/>
    </contour>
    <contour>
      <point x="202" y="451" type="line"/>
      <point x="191" y="454"/>
      <point x="179" y="455"/>
      <point x="168" y="455" type="curve" smooth="yes"/>
      <point x="140" y="455"/>
      <point x="106" y="447"/>
      <point x="84" y="429" type="curve"/>
      <point x="84" y="52" type="line"/>
      <point x="90" y="47"/>
      <point x="97" y="42"/>
      <point x="104" y="39" type="curve"/>
    </contour>
  </outline>
</glyph>
<glyph name="thorn" format="1">
  <advance width="336"/>
  <unicode hex="00FE"/>
  <outline>
    <contour>
      <point x="292" y="34" type="line"/>
      <point x="262" y="6"/>
      <point x="219" y="-7"/>
      <point x="176" y="-7" type="curve" smooth="yes"/>
      <point x="142" y="-7"/>
      <point x="112" y="2"/>
      <point x="88" y="15" type="curve"/>
      <point x="88" y="-175" type="line"/>
      <point x="52" y="-175" type="line"/>
      <point x="52" y="720" type="line"/>
      <point x="88" y="720" type="line"/>
      <point x="88" y="465" type="line"/>
      <point x="112" y="478"/>
      <point x="142" y="487"/>
      <point x="176" y="487" type="curve" smooth="yes"/>
      <point x="219" y="487"/>
      <point x="262" y="474"/>
      <point x="292" y="446" type="curve"/>
    </contour>
    <contour>
      <point x="256" y="52" type="curve"/>
      <point x="256" y="429" type="line"/>
      <point x="235" y="447"/>
      <point x="200" y="455"/>
      <point x="172" y="455" type="curve" smooth="yes"/>
      <point x="138" y="455"/>
      <point x="111" y="446"/>
      <point x="88" y="430" type="curve"/>
      <point x="88" y="50" type="line"/>
      <point x="111" y="34"/>
      <point x="138" y="25"/>
      <point x="172" y="25" type="curve" smooth="yes"/>
      <point x="200" y="25"/>
      <point x="235" y="33"/>
    </contour>
  </outline>
</glyph>
<glyph name="Lslash" format="1">
  <advance width="367"/>
  <unicode hex="0141"/>
  <outline>
    <contour>
      <point x="333" y="0" type="line"/>
      <point x="75" y="0" type="line"/>
      <point x="75" y="325" type="line"/>
      <point x="32" y="304" type="line"/>
      <point x="32" y="343" type="line"/>
      <point x="75" y="364" type="line"/>
      <point x="75" y="720" type="line"/>
      <point x="112" y="720" type="line"/>
      <point x="112" y="382" type="line"/>
      <point x="211" y="432" type="line"/>
      <point x="211" y="394" type="line"/>
      <point x="112" y="344" type="line"/>
      <point x="112" y="33" type="line"/>
      <point x="333" y="33" type="line"/>
    </contour>
  </outline>
</glyph>
<glyph name="lslash" format="1">
  <advance width="161"/>
  <unicode hex="0142"/>
  <outline>
    <contour>
      <point x="139" y="362" type="line"/>
      <point x="99" y="341" type="line"/>
      <point x="99" y="0" type="line"/>
      <point x="63" y="0" type="line"/>
      <point x="63" y="323" type="line"/>
      <point x="22" y="303" type="line"/>
      <point x="22" y="342" type="line"/>
      <point x="63" y="362" type="line"/>
      <point x="63" y="720" type="line"/>
      <point x="99" y="720" type="line"/>
      <point x="99" y="380" type="line"/>
      <point x="139" y="400" type="line"/>
    </contour>
  </outline>
</glyph>
<glyph name="OE" format="1">
  <advance width="710"/>
  <unicode hex="0152"/>
  <outline>
    <contour>
      <point x="650" y="36" type="line"/>
      <point x="602" y="6"/>
      <point x="551" y="-7"/>
      <point x="497" y="-7" type="curve" smooth="yes"/>
      <point x="448" y="-7"/>
      <point x="403" y="5"/>
      <point x="363" y="27" type="curve"/>
      <point x="321" y="4"/>
      <point x="276" y="-7"/>
      <point x="222" y="-7" type="curve" smooth="yes"/>
      <point x="161" y="-7"/>
      <point x="109" y="8"/>
      <point x="60" y="40" type="curve"/>
      <point x="60" y="680" type="line"/>
      <point x="108" y="712"/>
      <point x="161" y="727"/>
      <point x="222" y="727" type="curve" smooth="yes"/>
      <point x="276" y="727"/>
      <point x="321" y="716"/>
      <point x="362" y="693" type="curve"/>
      <point x="403" y="715"/>
      <point x="448" y="727"/>
      <point x="497" y="727" type="curve" smooth="yes"/>
      <point x="551" y="727"/>
      <point x="601" y="715"/>
      <point x="650" y="684" type="curve"/>
      <point x="650" y="487" type="line"/>
      <point x="613" y="487" type="line"/>
      <point x="613" y="664" type="line"/>
      <point x="576" y="685"/>
      <point x="541" y="694"/>
      <point x="497" y="694" type="curve" smooth="yes"/>
      <point x="453" y="694"/>
      <point x="418" y="684"/>
      <point x="383" y="663" type="curve"/>
      <point x="383" y="388" type="line"/>
      <point x="561" y="388" type="line"/>
      <point x="561" y="354" type="line"/>
      <point x="383" y="354" type="line"/>
      <point x="383" y="57" type="line"/>
      <point x="418" y="36"/>
      <point x="453" y="26"/>
      <point x="497" y="26" type="curve" smooth="yes"/>
      <point x="540" y="26"/>
      <point x="576" y="35"/>
      <point x="613" y="56" type="curve"/>
      <point x="613" y="233" type="line"/>
      <point x="650" y="233" type="line"/>
    </contour>
    <contour>
      <point x="346" y="59" type="curve"/>
      <point x="346" y="661" type="line"/>
      <point x="309" y="683"/>
      <point x="270" y="694"/>
      <point x="222" y="694" type="curve" smooth="yes"/>
      <point x="174" y="694"/>
      <point x="134" y="683"/>
      <point x="97" y="660" type="curve"/>
      <point x="97" y="60" type="line"/>
      <point x="134" y="37"/>
      <point x="173" y="26"/>
      <point x="222" y="26" type="curve" smooth="yes"/>
      <point x="270" y="26"/>
      <point x="309" y="37"/>
    </contour>
  </outline>
</glyph>
<glyph name="oe" format="1">
  <advance width="509"/>
  <unicode hex="0153"/>
  <outline>
    <contour>
      <point x="462" y="28" type="line"/>
      <point x="431" y="3"/>
      <point x="393" y="-7"/>
      <point x="352" y="-7" type="curve" smooth="yes"/>
      <point x="319" y="-7"/>
      <point x="287" y="0"/>
      <point x="259" y="17" type="curve"/>
      <point x="233" y="1"/>
      <point x="199" y="-7"/>
      <point x="163" y="-7" type="curve" smooth="yes"/>
      <point x="118" y="-7"/>
      <point x="78" y="5"/>
      <point x="48" y="30" type="curve"/>
      <point x="48" y="450" type="line"/>
      <point x="77" y="474"/>
      <point x="117" y="487"/>
      <point x="163" y="487" type="curve" smooth="yes"/>
      <point x="199" y="487"/>
      <point x="233" y="479"/>
      <point x="260" y="463" type="curve"/>
      <point x="287" y="479"/>
      <point x="318" y="487"/>
      <point x="352" y="487" type="curve" smooth="yes"/>
      <point x="394" y="487"/>
      <point x="431" y="476"/>
      <point x="462" y="451" type="curve"/>
      <point x="462" y="232" type="line"/>
      <point x="277" y="232" type="line"/>
      <point x="277" y="45" type="line"/>
      <point x="300" y="29"/>
      <point x="327" y="25"/>
      <point x="352" y="25" type="curve" smooth="yes"/>
      <point x="377" y="25"/>
      <point x="403" y="29"/>
      <point x="427" y="45" type="curve"/>
      <point x="427" y="155" type="line"/>
      <point x="462" y="155" type="line"/>
    </contour>
    <contour>
      <point x="427" y="262" type="line"/>
      <point x="427" y="434" type="line"/>
      <point x="405" y="449"/>
      <point x="379" y="455"/>
      <point x="352" y="455" type="curve" smooth="yes"/>
      <point x="326" y="455"/>
      <point x="300" y="450"/>
      <point x="277" y="434" type="curve"/>
      <point x="277" y="262" type="line"/>
    </contour>
    <contour>
      <point x="242" y="47" type="curve"/>
      <point x="242" y="433" type="line"/>
      <point x="221" y="449"/>
      <point x="192" y="455"/>
      <point x="163" y="455" type="curve" smooth="yes"/>
      <point x="135" y="455"/>
      <point x="106" y="449"/>
      <point x="84" y="433" type="curve"/>
      <point x="84" y="47" type="line"/>
      <point x="105" y="32"/>
      <point x="134" y="25"/>
      <point x="163" y="25" type="curve" smooth="yes"/>
      <point x="191" y="25"/>
      <point x="221" y="31"/>
    </contour>
  </outline>
</glyph>
<glyph name="florin" format="1">
  <advance width="220"/>
  <unicode hex="0192"/>
  <outline>
    <contour>
      <point x="192" y="691" type="line"/>
      <point x="172" y="691" type="line" smooth="yes"/>
      <point x="148" y="691"/>
      <point x="126" y="681"/>
      <point x="112" y="665" type="curve"/>
      <point x="112" y="480" type="line"/>
      <point x="186" y="480" type="line"/>
      <point x="186" y="447" type="line"/>
      <point x="112" y="447" type="line"/>
      <point x="112" y="-134" type="line"/>
      <point x="91" y="-163"/>
      <point x="56" y="-179"/>
      <point x="18" y="-179" type="curve" smooth="yes"/>
      <point x="-4" y="-179" type="line"/>
      <point x="-4" y="-146" type="line"/>
      <point x="16" y="-146" type="line" smooth="yes"/>
      <point x="40" y="-146"/>
      <point x="61" y="-136"/>
      <point x="76" y="-120" type="curve"/>
      <point x="76" y="447" type="line"/>
      <point x="39" y="447" type="line"/>
      <point x="39" y="480" type="line"/>
      <point x="76" y="480" type="line"/>
      <point x="76" y="679" type="line"/>
      <point x="97" y="708"/>
      <point x="132" y="724"/>
      <point x="170" y="724" type="curve" smooth="yes"/>
      <point x="192" y="724" type="line"/>
    </contour>
  </outline>
</glyph>
<glyph name="caron" format="1">
  <advance width="307"/>
  <unicode hex="02C7"/>
  <outline>
    <contour>
      <point x="252" y="663" type="line"/>
      <point x="175" y="535" type="line"/>
      <point x="132" y="535" type="line"/>
      <point x="54" y="663" type="line"/>
      <point x="93" y="663" type="line"/>
      <point x="153" y="565" type="line"/>
      <point x="213" y="663" type="line"/>
    </contour>
  </outline>
</glyph>
<glyph name="breve" format="1">
  <advance width="307"/>
  <unicode hex="02D8"/>
  <outline>
    <contour>
      <point x="244" y="566" type="line"/>
      <point x="220" y="546"/>
      <point x="186" y="535"/>
      <point x="154" y="535" type="curve" smooth="yes"/>
      <point x="121" y="535"/>
      <point x="87" y="546"/>
      <point x="63" y="566" type="curve"/>
      <point x="63" y="663" type="line"/>
      <point x="98" y="663" type="line"/>
      <point x="98" y="581" type="line"/>
      <point x="113" y="569"/>
      <point x="134" y="564"/>
      <point x="154" y="564" type="curve" smooth="yes"/>
      <point x="173" y="564"/>
      <point x="194" y="569"/>
      <point x="209" y="581" type="curve"/>
      <point x="209" y="663" type="line"/>
      <point x="244" y="663" type="line"/>
    </contour>
  </outline>
</glyph>
<glyph name="dotaccent" format="1">
  <advance width="307"/>
  <unicode hex="02D9"/>
  <outline>
    <contour>
      <point x="172" y="535" type="line"/>
      <point x="135" y="535" type="line"/>
      <point x="135" y="645" type="line"/>
      <point x="172" y="645" type="line"/>
    </contour>
  </outline>
</glyph>
<glyph name="ring" format="1">
  <advance width="307"/>
  <unicode hex="02DA"/>
  <outline>
    <contour>
      <point x="241" y="562" type="line"/>
      <point x="218" y="544"/>
      <point x="185" y="535"/>
      <point x="154" y="535" type="curve" smooth="yes"/>
      <point x="122" y="535"/>
      <point x="89" y="544"/>
      <point x="66" y="562" type="curve"/>
      <point x="66" y="640" type="line"/>
      <point x="89" y="658"/>
      <point x="122" y="667"/>
      <point x="154" y="667" type="curve" smooth="yes"/>
      <point x="185" y="667"/>
      <point x="218" y="658"/>
      <point x="241" y="640" type="curve"/>
    </contour>
    <contour>
      <point x="212" y="574" type="curve"/>
      <point x="212" y="628" type="line"/>
      <point x="196" y="639"/>
      <point x="173" y="643"/>
      <point x="154" y="643" type="curve" smooth="yes"/>
      <point x="134" y="643"/>
      <point x="111" y="639"/>
      <point x="95" y="628" type="curve"/>
      <point x="95" y="574" type="line"/>
      <point x="111" y="563"/>
      <point x="134" y="559"/>
      <point x="154" y="559" type="curve" smooth="yes"/>
      <point x="173" y="559"/>
      <point x="196" y="563"/>
    </contour>
  </outline>
</glyph>
<glyph name="ogonek" format="1">
  <advance width="307"/>
  <unicode hex="02DB"/>
  <outline>
    <contour>
      <point x="221" y="-103" type="line"/>
      <point x="214" y="-103" type="line" smooth="yes"/>
      <point x="185" y="-103"/>
      <point x="156" y="-95"/>
      <point x="136" y="-71" type="curve"/>
      <point x="136" y="6" type="line"/>
      <point x="170" y="6" type="line"/>
      <point x="170" y="-54" type="line"/>
      <point x="182" y="-67"/>
      <point x="198" y="-71"/>
      <point x="216" y="-71" type="curve" smooth="yes"/>
      <point x="221" y="-71" type="line"/>
    </contour>
  </outline>
</glyph>
<glyph name="tilde" format="1">
  <advance width="307"/>
  <unicode hex="02DC"/>
  <outline>
    <contour>
      <point x="257" y="663" type="line"/>
      <point x="216" y="535" type="line"/>
      <point x="184" y="535" type="line"/>
      <point x="114" y="626" type="line"/>
      <point x="82" y="535" type="line"/>
      <point x="50" y="535" type="line"/>
      <point x="91" y="663" type="line"/>
      <point x="123" y="663" type="line"/>
      <point x="193" y="572" type="line"/>
      <point x="225" y="663" type="line"/>
    </contour>
  </outline>
</glyph>
<glyph name="hungarumlaut" format="1">
  <advance width="307"/>
  <unicode hex="02DD"/>
  <outline>
    <contour>
      <point x="268" y="663" type="line"/>
      <point x="197" y="535" type="line"/>
      <point x="157" y="535" type="line"/>
      <point x="225" y="663" type="line"/>
    </contour>
    <contour>
      <point x="150" y="663" type="line"/>
      <point x="79" y="535" type="line"/>
      <point x="39" y="535" type="line"/>
      <point x="107" y="663" type="line"/>
    </contour>
  </outline>
</glyph>
<glyph name="endash" format="1">
  <advance width="326"/>
  <unicode hex="2013"/>
  <outline>
    <contour>
      <point x="294" y="297" type="line"/>
      <point x="31" y="297" type="line"/>
      <point x="31" y="332" type="line"/>
      <point x="294" y="332" type="line"/>
    </contour>
  </outline>
</glyph>
<glyph name="emdash" format="1">
  <advance width="442"/>
  <unicode hex="2014"/>
  <outline>
    <contour>
      <point x="410" y="297" type="line"/>
      <point x="31" y="297" type="line"/>
      <point x="31" y="332" type="line"/>
      <point x="410" y="332" type="line"/>
    </contour>
  </outline>
</glyph>
<glyph name="quoteleft" format="1">
  <advance width="143"/>
  <unicode hex="2018"/>
  <unicode hex="02BB"/>
  <outline>
    <contour>
      <point x="102" y="484" type="line"/>
      <point x="65" y="484" type="line"/>
      <point x="40" y="720" type="line"/>
      <point x="78" y="720" type="line"/>
    </contour>
  </outline>
</glyph>
<glyph name="quoteright" format="1">
  <advance width="143"/>
  <unicode hex="2019"/>
  <unicode hex="02BC"/>
  <outline>
    <contour>
      <point x="102" y="720" type="line"/>
      <point x="78" y="484" type="line"/>
      <point x="40" y="484" type="line"/>
      <point x="65" y="720" type="line"/>
    </contour>
  </outline>
</glyph>
<glyph name="quotesinglbase" format="1">
  <advance width="144"/>
  <unicode hex="201A"/>
  <outline>
    <contour>
      <point x="95" y="113" type="line"/>
      <point x="71" y="-123" type="line"/>
      <point x="33" y="-123" type="line"/>
      <point x="58" y="113" type="line"/>
    </contour>
  </outline>
</glyph>
<glyph name="quotedblleft" format="1">
  <advance width="273"/>
  <unicode hex="201C"/>
  <outline>
    <contour>
      <point x="232" y="484" type="line"/>
      <point x="195" y="484" type="line"/>
      <point x="171" y="720" type="line"/>
      <point x="208" y="720" type="line"/>
    </contour>
    <contour>
      <point x="102" y="484" type="line"/>
      <point x="65" y="484" type="line"/>
      <point x="40" y="720" type="line"/>
      <point x="78" y="720" type="line"/>
    </contour>
  </outline>
</glyph>
<glyph name="quotedblright" format="1">
  <advance width="273"/>
  <unicode hex="201D"/>
  <outline>
    <contour>
      <point x="232" y="720" type="line"/>
      <point x="208" y="484" type="line"/>
      <point x="171" y="484" type="line"/>
      <point x="195" y="720" type="line"/>
    </contour>
    <contour>
      <point x="102" y="720" type="line"/>
      <point x="78" y="484" type="line"/>
      <point x="40" y="484" type="line"/>
      <point x="65" y="720" type="line"/>
    </contour>
  </outline>
</glyph>
<glyph name="quotedblbase" format="1">
  <advance width="273"/>
  <unicode hex="201E"/>
  <outline>
    <contour>
      <point x="226" y="113" type="line"/>
      <point x="201" y="-123" type="line"/>
      <point x="164" y="-123" type="line"/>
      <point x="188" y="113" type="line"/>
    </contour>
    <contour>
      <point x="95" y="113" type="line"/>
      <point x="71" y="-123" type="line"/>
      <point x="33" y="-123" type="line"/>
      <point x="58" y="113" type="line"/>
    </contour>
  </outline>
</glyph>
<glyph name="dagger" format="1">
  <advance width="292"/>
  <unicode hex="2020"/>
  <outline>
    <contour>
      <point x="268" y="447" type="line"/>
      <point x="164" y="447" type="line"/>
      <point x="164" y="0" type="line"/>
      <point x="128" y="0" type="line"/>
      <point x="128" y="447" type="line"/>
      <point x="24" y="447" type="line"/>
      <point x="24" y="480" type="line"/>
      <point x="128" y="480" type="line"/>
      <point x="128" y="720" type="line"/>
      <point x="164" y="720" type="line"/>
      <point x="164" y="480" type="line"/>
      <point x="268" y="480" type="line"/>
    </contour>
  </outline>
</glyph>
<glyph name="daggerdbl" format="1">
  <advance width="292"/>
  <unicode hex="2021"/>
  <outline>
    <contour>
      <point x="268" y="253" type="line"/>
      <point x="164" y="253" type="line"/>
      <point x="164" y="0" type="line"/>
      <point x="128" y="0" type="line"/>
      <point x="128" y="253" type="line"/>
      <point x="24" y="253" type="line"/>
      <point x="24" y="286" type="line"/>
      <point x="128" y="286" type="line"/>
      <point x="128" y="447" type="line"/>
      <point x="24" y="447" type="line"/>
      <point x="24" y="480" type="line"/>
      <point x="128" y="480" type="line"/>
      <point x="128" y="720" type="line"/>
      <point x="164" y="720" type="line"/>
      <point x="164" y="480" type="line"/>
      <point x="268" y="480" type="line"/>
      <point x="268" y="447" type="line"/>
      <point x="164" y="447" type="line"/>
      <point x="164" y="286" type="line"/>
      <point x="268" y="286" type="line"/>
    </contour>
  </outline>
</glyph>
<glyph name="bullet" format="1">
  <advance width="302"/>
  <unicode hex="2022"/>
  <outline>
    <contour>
      <point x="243" y="256" type="line"/>
      <point x="219" y="235"/>
      <point x="183" y="225"/>
      <point x="151" y="225" type="curve" smooth="yes"/>
      <point x="119" y="225"/>
      <point x="84" y="235"/>
      <point x="59" y="256" type="curve"/>
      <point x="59" y="489" type="line"/>
      <point x="84" y="511"/>
      <point x="119" y="520"/>
      <point x="151" y="520" type="curve" smooth="yes"/>
      <point x="183" y="520"/>
      <point x="219" y="511"/>
      <point x="243" y="489" type="curve"/>
    </contour>
  </outline>
</glyph>
<glyph name="ellipsis" format="1">
  <advance width="430"/>
  <unicode hex="2026"/>
  <outline>
    <contour>
      <point x="377" y="0" type="line"/>
      <point x="339" y="0" type="line"/>
      <point x="339" y="103" type="line"/>
      <point x="377" y="103" type="line"/>
    </contour>
    <contour>
      <point x="234" y="0" type="line"/>
      <point x="196" y="0" type="line"/>
      <point x="196" y="103" type="line"/>
      <point x="234" y="103" type="line"/>
    </contour>
    <contour>
      <point x="91" y="0" type="line"/>
      <point x="52" y="0" type="line"/>
      <point x="52" y="103" type="line"/>
      <point x="91" y="103" type="line"/>
    </contour>
  </outline>
</glyph>
<glyph name="perthousand" format="1">
  <advance width="959"/>
  <unicode hex="2030"/>
  <outline>
    <contour>
      <point x="908" y="35" type="line"/>
      <point x="879" y="7"/>
      <point x="842" y="-7"/>
      <point x="800" y="-7" type="curve" smooth="yes"/>
      <point x="758" y="-7"/>
      <point x="722" y="7"/>
      <point x="693" y="35" type="curve"/>
      <point x="693" y="342" type="line"/>
      <point x="722" y="370"/>
      <point x="758" y="383"/>
      <point x="800" y="383" type="curve" smooth="yes"/>
      <point x="842" y="383"/>
      <point x="879" y="370"/>
      <point x="908" y="342" type="curve"/>
    </contour>
    <contour>
      <point x="627" y="35" type="line"/>
      <point x="598" y="7"/>
      <point x="561" y="-7"/>
      <point x="519" y="-7" type="curve" smooth="yes"/>
      <point x="478" y="-7"/>
      <point x="441" y="7"/>
      <point x="412" y="35" type="curve"/>
      <point x="412" y="342" type="line"/>
      <point x="441" y="370"/>
      <point x="478" y="383"/>
      <point x="519" y="383" type="curve" smooth="yes"/>
      <point x="561" y="383"/>
      <point x="598" y="370"/>
      <point x="627" y="342" type="curve"/>
    </contour>
    <contour>
      <point x="464" y="720" type="line"/>
      <point x="251" y="0" type="line"/>
      <point x="216" y="0" type="line"/>
      <point x="429" y="720" type="line"/>
    </contour>
    <contour>
      <point x="268" y="378" type="line"/>
      <point x="239" y="350"/>
      <point x="202" y="337"/>
      <point x="160" y="337" type="curve" smooth="yes"/>
      <point x="118" y="337"/>
      <point x="81" y="350"/>
      <point x="52" y="378" type="curve"/>
      <point x="52" y="685" type="line"/>
      <point x="81" y="713"/>
      <point x="118" y="727"/>
      <point x="160" y="727" type="curve" smooth="yes"/>
      <point x="202" y="727"/>
      <point x="239" y="713"/>
      <point x="268" y="685" type="curve"/>
    </contour>
    <contour>
      <point x="874" y="50" type="curve"/>
      <point x="874" y="327" type="line"/>
      <point x="851" y="346"/>
      <point x="827" y="353"/>
      <point x="800" y="353" type="curve" smooth="yes"/>
      <point x="774" y="353"/>
      <point x="749" y="346"/>
      <point x="727" y="327" type="curve"/>
      <point x="727" y="50" type="line"/>
      <point x="749" y="30"/>
      <point x="774" y="24"/>
      <point x="800" y="24" type="curve" smooth="yes"/>
      <point x="827" y="24"/>
      <point x="851" y="30"/>
    </contour>
    <contour>
      <point x="592" y="50" type="curve"/>
      <point x="592" y="327" type="line"/>
      <point x="571" y="346"/>
      <point x="546" y="353"/>
      <point x="519" y="353" type="curve" smooth="yes"/>
      <point x="493" y="353"/>
      <point x="468" y="346"/>
      <point x="446" y="327" type="curve"/>
      <point x="446" y="50" type="line"/>
      <point x="468" y="30"/>
      <point x="493" y="24"/>
      <point x="519" y="24" type="curve" smooth="yes"/>
      <point x="546" y="24"/>
      <point x="571" y="30"/>
    </contour>
    <contour>
      <point x="234" y="393" type="curve"/>
      <point x="234" y="670" type="line"/>
      <point x="211" y="690"/>
      <point x="187" y="696"/>
      <point x="160" y="696" type="curve" smooth="yes"/>
      <point x="134" y="696"/>
      <point x="109" y="690"/>
      <point x="87" y="670" type="curve"/>
      <point x="87" y="393" type="line"/>
      <point x="109" y="374"/>
      <point x="134" y="367"/>
      <point x="160" y="367" type="curve" smooth="yes"/>
      <point x="187" y="367"/>
      <point x="211" y="374"/>
    </contour>
  </outline>
</glyph>
<glyph name="guilsinglleft" format="1">
  <advance width="210"/>
  <unicode hex="2039"/>
  <outline>
    <contour>
      <point x="172" y="27" type="line"/>
      <point x="28" y="221" type="line"/>
      <point x="28" y="259" type="line"/>
      <point x="172" y="453" type="line"/>
      <point x="172" y="396" type="line"/>
      <point x="56" y="240" type="line"/>
      <point x="172" y="85" type="line"/>
    </contour>
  </outline>
</glyph>
<glyph name="guilsinglright" format="1">
  <advance width="210"/>
  <unicode hex="203A"/>
  <outline>
    <contour>
      <point x="182" y="221" type="line"/>
      <point x="37" y="27" type="line"/>
      <point x="37" y="85" type="line"/>
      <point x="154" y="240" type="line"/>
      <point x="37" y="396" type="line"/>
      <point x="37" y="453" type="line"/>
      <point x="182" y="259" type="line"/>
    </contour>
  </outline>
</glyph>
<glyph name="fraction" format="1">
  <advance width="281"/>
  <unicode hex="2044"/>
  <unicode hex="2215"/>
  <outline>
    <contour>
      <point x="267" y="720" type="line"/>
      <point x="52" y="0" type="line"/>
      <point x="14" y="0" type="line"/>
      <point x="229" y="720" type="line"/>
    </contour>
  </outline>
</glyph>
<glyph name="Euro" format="1">
  <advance width="434"/>
  <unicode hex="20AC"/>
  <outline>
    <contour>
      <point x="97" y="413" type="line"/>
      <point x="97" y="318" type="line"/>
      <point x="239" y="318" type="line"/>
      <point x="239" y="283" type="line"/>
      <point x="97" y="283" type="line"/>
      <point x="97" y="65" type="line"/>
      <point x="132" y="39"/>
      <point x="164" y="26"/>
      <point x="212" y="26" type="curve" smooth="yes"/>
      <point x="260" y="26"/>
      <point x="293" y="39"/>
      <point x="327" y="65" type="curve"/>
      <point x="327" y="233" type="line"/>
      <point x="364" y="233" type="line"/>
      <point x="364" y="47" type="line"/>
      <point x="319" y="11"/>
      <point x="269" y="-7"/>
      <point x="212" y="-7" type="curve" smooth="yes"/>
      <point x="155" y="-7"/>
      <point x="106" y="11"/>
      <point x="60" y="47" type="curve"/>
      <point x="60" y="283" type="line"/>
      <point x="18" y="283" type="line"/>
      <point x="18" y="318" type="line"/>
      <point x="60" y="318" type="line"/>
      <point x="60" y="413" type="line"/>
      <point x="18" y="413" type="line"/>
      <point x="18" y="448" type="line"/>
      <point x="60" y="448" type="line"/>
      <point x="60" y="673" type="line"/>
      <point x="106" y="709"/>
      <point x="155" y="727"/>
      <point x="212" y="727" type="curve" smooth="yes"/>
      <point x="269" y="727"/>
      <point x="319" y="709"/>
      <point x="364" y="673" type="curve"/>
      <point x="364" y="487" type="line"/>
      <point x="327" y="487" type="line"/>
      <point x="327" y="655" type="line"/>
      <point x="293" y="681"/>
      <point x="260" y="694"/>
      <point x="212" y="694" type="curve" smooth="yes"/>
      <point x="164" y="694"/>
      <point x="132" y="681"/>
      <point x="97" y="655" type="curve"/>
      <point x="97" y="448" type="line"/>
      <point x="239" y="448" type="line"/>
      <point x="239" y="413" type="line"/>
    </contour>
  </outline>
</glyph>
<glyph name="uni2117" format="1">
  <advance width="536"/>
  <unicode hex="2117"/>
  <outline>
    <contour>
      <point x="476" y="60" type="line"/>
      <point x="421" y="14"/>
      <point x="346" y="-7"/>
      <point x="268" y="-7" type="curve" smooth="yes"/>
      <point x="190" y="-7"/>
      <point x="114" y="14"/>
      <point x="60" y="60" type="curve"/>
      <point x="60" y="660" type="line"/>
      <point x="114" y="706"/>
      <point x="190" y="727"/>
      <point x="268" y="727" type="curve" smooth="yes"/>
      <point x="346" y="727"/>
      <point x="421" y="706"/>
      <point x="476" y="660" type="curve"/>
    </contour>
    <contour>
      <point x="443" y="75" type="curve"/>
      <point x="443" y="645" type="line"/>
      <point x="396" y="680"/>
      <point x="331" y="697"/>
      <point x="268" y="697" type="curve" smooth="yes"/>
      <point x="206" y="697"/>
      <point x="140" y="681"/>
      <point x="93" y="645" type="curve"/>
      <point x="93" y="75" type="line"/>
      <point x="140" y="39"/>
      <point x="206" y="23"/>
      <point x="268" y="23" type="curve" smooth="yes"/>
      <point x="331" y="23"/>
      <point x="396" y="40"/>
    </contour>
    <contour>
      <point x="363" y="377" type="line"/>
      <point x="338" y="347"/>
      <point x="308" y="334"/>
      <point x="264" y="334" type="curve" smooth="yes"/>
      <point x="213" y="334" type="line"/>
      <point x="213" y="111" type="line"/>
      <point x="183" y="111" type="line"/>
      <point x="183" y="612" type="line"/>
      <point x="264" y="612" type="line" smooth="yes"/>
      <point x="308" y="612"/>
      <point x="338" y="600"/>
      <point x="363" y="569" type="curve"/>
    </contour>
    <contour>
      <point x="333" y="389" type="curve"/>
      <point x="333" y="556" type="line"/>
      <point x="316" y="577"/>
      <point x="293" y="583"/>
      <point x="264" y="583" type="curve" smooth="yes"/>
      <point x="213" y="583" type="line"/>
      <point x="213" y="362" type="line"/>
      <point x="264" y="362" type="line" smooth="yes"/>
      <point x="293" y="362"/>
      <point x="316" y="369"/>
    </contour>
  </outline>
</glyph>
<glyph name="trademark" format="1">
  <advance width="581"/>
  <unicode hex="2122"/>
  <outline>
    <contour>
      <point x="534" y="300" type="line"/>
      <point x="503" y="300" type="line"/>
      <point x="503" y="674" type="line"/>
      <point x="480" y="688"/>
      <point x="446" y="695"/>
      <point x="414" y="696" type="curve"/>
      <point x="414" y="300" type="line"/>
      <point x="382" y="300" type="line"/>
      <point x="382" y="696" type="line"/>
      <point x="350" y="695"/>
      <point x="316" y="688"/>
      <point x="293" y="673" type="curve"/>
      <point x="293" y="300" type="line"/>
      <point x="262" y="300" type="line"/>
      <point x="262" y="690" type="line"/>
      <point x="299" y="714"/>
      <point x="346" y="724"/>
      <point x="398" y="724" type="curve" smooth="yes"/>
      <point x="449" y="724"/>
      <point x="497" y="714"/>
      <point x="534" y="690" type="curve"/>
    </contour>
    <contour>
      <point x="215" y="692" type="line"/>
      <point x="132" y="692" type="line"/>
      <point x="132" y="300" type="line"/>
      <point x="100" y="300" type="line"/>
      <point x="100" y="692" type="line"/>
      <point x="17" y="692" type="line"/>
      <point x="17" y="720" type="line"/>
      <point x="215" y="720" type="line"/>
    </contour>
  </outline>
</glyph>
<glyph name="radical" format="1">
  <advance width="352"/>
  <unicode hex="221A"/>
  <outline>
    <contour>
      <point x="319" y="720" type="line"/>
      <point x="178" y="0" type="line"/>
      <point x="139" y="0" type="line"/>
      <point x="33" y="311" type="line"/>
      <point x="71" y="311" type="line"/>
      <point x="157" y="56" type="line"/>
      <point x="283" y="720" type="line"/>
    </contour>
  </outline>
</glyph>
<glyph name="apple" format="1">
  <advance width="456"/>
  <unicode hex="F8FF"/>
  <outline>
    <contour>
      <point x="396" y="487" type="line"/>
      <point x="359" y="487" type="line"/>
      <point x="359" y="649" type="line"/>
      <point x="322" y="679"/>
      <point x="279" y="694"/>
      <point x="228" y="694" type="curve" smooth="yes"/>
      <point x="177" y="694"/>
      <point x="134" y="679"/>
      <point x="97" y="649" type="curve"/>
      <point x="97" y="487" type="line"/>
      <point x="60" y="487" type="line"/>
      <point x="60" y="666" type="line"/>
      <point x="108" y="708"/>
      <point x="164" y="727"/>
      <point x="228" y="727" type="curve" smooth="yes"/>
      <point x="291" y="727"/>
      <point x="348" y="708"/>
      <point x="396" y="666" type="curve"/>
    </contour>
    <contour>
      <point x="322" y="345" type="line"/>
      <point x="245" y="345" type="line"/>
      <point x="245" y="259" type="line"/>
      <point x="212" y="259" type="line"/>
      <point x="212" y="345" type="line"/>
      <point x="134" y="345" type="line"/>
      <point x="134" y="376" type="line"/>
      <point x="212" y="376" type="line"/>
      <point x="212" y="461" type="line"/>
      <point x="245" y="461" type="line"/>
      <point x="245" y="376" type="line"/>
      <point x="322" y="376" type="line"/>
    </contour>
    <contour>
      <point x="396" y="54" type="line"/>
      <point x="348" y="12"/>
      <point x="291" y="-7"/>
      <point x="228" y="-7" type="curve" smooth="yes"/>
      <point x="164" y="-7"/>
      <point x="108" y="12"/>
      <point x="60" y="54" type="curve"/>
      <point x="60" y="233" type="line"/>
      <point x="97" y="233" type="line"/>
      <point x="97" y="71" type="line"/>
      <point x="134" y="41"/>
      <point x="177" y="26"/>
      <point x="228" y="26" type="curve" smooth="yes"/>
      <point x="279" y="26"/>
      <point x="322" y="41"/>
      <point x="359" y="71" type="curve"/>
      <point x="359" y="233" type="line"/>
      <point x="396" y="233" type="line"/>
    </contour>
  </outline>
</glyph>
<glyph name="fl" format="1">
  <advance width="350"/>
  <unicode hex="FB02"/>
  <outline>
    <contour>
      <point x="295" y="0" type="line"/>
      <point x="259" y="0" type="line"/>
      <point x="259" y="720" type="line"/>
      <point x="295" y="720" type="line"/>
    </contour>
    <contour>
      <point x="190" y="691" type="line"/>
      <point x="169" y="691" type="line" smooth="yes"/>
      <point x="145" y="691"/>
      <point x="123" y="681"/>
      <point x="109" y="665" type="curve"/>
      <point x="109" y="480" type="line"/>
      <point x="183" y="480" type="line"/>
      <point x="183" y="447" type="line"/>
      <point x="109" y="447" type="line"/>
      <point x="109" y="0" type="line"/>
      <point x="73" y="0" type="line"/>
      <point x="73" y="447" type="line"/>
      <point x="36" y="447" type="line"/>
      <point x="36" y="480" type="line"/>
      <point x="73" y="480" type="line"/>
      <point x="73" y="679" type="line"/>
      <point x="95" y="708"/>
      <point x="129" y="724"/>
      <point x="168" y="724" type="curve" smooth="yes"/>
      <point x="190" y="724" type="line"/>
    </contour>
  </outline>
</glyph>
<glyph name="nbspace" format="1">
  <advance width="87"/>
  <outline>
    <contour>
      <point x="1" y="0" type="move"/>
    </contour>
  </outline>
</glyph>
<glyph name="registered" format="1">
  <advance width="536"/>
  <outline>
    <contour>
      <point x="476" y="60" type="line"/>
      <point x="421" y="14"/>
      <point x="346" y="-7"/>
      <point x="268" y="-7" type="curve" smooth="yes"/>
      <point x="190" y="-7"/>
      <point x="114" y="14"/>
      <point x="60" y="60" type="curve"/>
      <point x="60" y="660" type="line"/>
      <point x="114" y="706"/>
      <point x="190" y="727"/>
      <point x="268" y="727" type="curve" smooth="yes"/>
      <point x="346" y="727"/>
      <point x="421" y="706"/>
      <point x="476" y="660" type="curve"/>
    </contour>
    <contour>
      <point x="443" y="75" type="curve"/>
      <point x="443" y="645" type="line"/>
      <point x="396" y="680"/>
      <point x="331" y="697"/>
      <point x="268" y="697" type="curve" smooth="yes"/>
      <point x="206" y="697"/>
      <point x="140" y="681"/>
      <point x="93" y="645" type="curve"/>
      <point x="93" y="75" type="line"/>
      <point x="140" y="39"/>
      <point x="206" y="23"/>
      <point x="268" y="23" type="curve" smooth="yes"/>
      <point x="331" y="23"/>
      <point x="396" y="40"/>
    </contour>
    <contour>
      <point x="361" y="111" type="line"/>
      <point x="330" y="111" type="line"/>
      <point x="330" y="325" type="line"/>
      <point x="313" y="343"/>
      <point x="290" y="350"/>
      <point x="263" y="350" type="curve" smooth="yes"/>
      <point x="207" y="350" type="line"/>
      <point x="207" y="111" type="line"/>
      <point x="177" y="111" type="line"/>
      <point x="177" y="612" type="line"/>
      <point x="262" y="612" type="line" smooth="yes"/>
      <point x="305" y="612"/>
      <point x="334" y="602"/>
      <point x="359" y="571" type="curve"/>
      <point x="359" y="393" type="line"/>
      <point x="347" y="379"/>
      <point x="330" y="369"/>
      <point x="313" y="364" type="curve"/>
      <point x="331" y="359"/>
      <point x="349" y="349"/>
      <point x="361" y="335" type="curve"/>
    </contour>
    <contour>
      <point x="329" y="402" type="curve"/>
      <point x="329" y="559" type="line"/>
      <point x="312" y="579"/>
      <point x="290" y="584"/>
      <point x="262" y="584" type="curve" smooth="yes"/>
      <point x="207" y="584" type="line"/>
      <point x="207" y="377" type="line"/>
      <point x="262" y="377" type="line" smooth="yes"/>
      <point x="291" y="377"/>
      <point x="313" y="385"/>
    </contour>
  </outline>
</glyph>
